/* XPM */
static char *_3e9fa5019fa4c74b126e70f221bf233cINbIZ2Z6ZifUqpK[] = {
/* columns rows colors chars-per-pixel */
"64 64 224 2 ",
"   c black",
".  c #010101",
"X  c #020202",
"o  c gray1",
"O  c #040404",
"+  c gray2",
"@  c #060606",
"#  c #070707",
"$  c gray3",
"%  c #090909",
"&  c gray4",
"*  c #0B0B0B",
"=  c #0C0C0C",
"-  c gray5",
";  c #0E0E0E",
":  c gray6",
">  c #101010",
",  c #111111",
"<  c gray7",
"1  c #131313",
"2  c gray8",
"3  c #151515",
"4  c #161616",
"5  c gray9",
"6  c #181818",
"7  c #191919",
"8  c gray10",
"9  c #1B1B1B",
"0  c gray11",
"q  c #1D1D1D",
"w  c #1E1E1E",
"e  c gray12",
"r  c #202020",
"t  c gray13",
"y  c #222222",
"u  c #232323",
"i  c gray14",
"p  c #252525",
"a  c gray15",
"s  c #272727",
"d  c #282828",
"f  c gray16",
"g  c #2A2A2A",
"h  c gray17",
"j  c #2C2C2C",
"k  c #2D2D2D",
"l  c gray18",
"z  c #2F2F2F",
"x  c gray19",
"c  c #313131",
"v  c #323232",
"b  c gray20",
"n  c #343434",
"m  c #353535",
"M  c #373737",
"N  c gray22",
"B  c #393939",
"V  c #3A3A3A",
"C  c gray23",
"Z  c #3C3C3C",
"A  c gray24",
"S  c #3E3E3E",
"D  c #3F3F3F",
"F  c gray25",
"G  c #414141",
"H  c gray26",
"J  c #434343",
"K  c #444444",
"L  c gray27",
"P  c #464646",
"I  c gray28",
"U  c #484848",
"Y  c gray29",
"T  c #4B4B4B",
"R  c #4C4C4C",
"E  c gray30",
"W  c #4E4E4E",
"Q  c gray31",
"!  c #505050",
"~  c #515151",
"^  c #535353",
"/  c gray33",
"(  c #555555",
")  c #565656",
"_  c #585858",
"`  c gray35",
"'  c #5A5A5A",
"]  c #5B5B5B",
"[  c gray36",
"{  c #5D5D5D",
"}  c gray37",
"|  c #5F5F5F",
" . c #606060",
".. c gray38",
"X. c #626262",
"o. c gray39",
"O. c #646464",
"+. c #656565",
"@. c gray40",
"#. c #676767",
"$. c #686868",
"%. c DimGray",
"&. c #6A6A6A",
"*. c gray42",
"=. c #6C6C6C",
"-. c #6D6D6D",
";. c gray43",
":. c #6F6F6F",
">. c gray44",
",. c #717171",
"<. c #727272",
"1. c gray45",
"2. c #747474",
"3. c gray46",
"4. c #767676",
"5. c #777777",
"6. c gray47",
"7. c #797979",
"8. c #7B7B7B",
"9. c #7C7C7C",
"0. c #7E7E7E",
"q. c gray50",
"w. c #808080",
"e. c #818181",
"r. c gray51",
"t. c #838383",
"y. c #848484",
"u. c gray52",
"i. c #868686",
"p. c gray53",
"a. c #888888",
"s. c #898989",
"d. c gray54",
"f. c #8B8B8B",
"g. c gray55",
"h. c #8D8D8D",
"j. c #8E8E8E",
"k. c gray56",
"l. c #909090",
"z. c gray57",
"x. c #929292",
"c. c #939393",
"v. c gray58",
"b. c #959595",
"n. c gray59",
"m. c #979797",
"M. c #989898",
"N. c gray60",
"B. c #9B9B9B",
"V. c gray61",
"C. c #9D9D9D",
"Z. c gray62",
"A. c #9F9F9F",
"S. c #A0A0A0",
"D. c #A2A2A2",
"F. c gray64",
"G. c #A4A4A4",
"H. c #A5A5A5",
"J. c gray65",
"K. c #A7A7A7",
"L. c gray66",
"P. c #A9A9A9",
"I. c #AAAAAA",
"U. c gray67",
"Y. c #ACACAC",
"T. c gray68",
"R. c #AEAEAE",
"E. c #AFAFAF",
"W. c gray69",
"Q. c #B1B1B1",
"!. c #B2B2B2",
"~. c gray70",
"^. c #B4B4B4",
"/. c #B6B6B6",
"(. c gray72",
"). c #B9B9B9",
"_. c gray73",
"`. c #BBBBBB",
"'. c #BCBCBC",
"]. c gray",
"[. c gray75",
"{. c #C0C0C0",
"}. c #C1C1C1",
"|. c #C3C3C3",
" X c gray77",
".X c #C5C5C5",
"XX c #C6C6C6",
"oX c gray78",
"OX c #C8C8C8",
"+X c gray79",
"@X c gray80",
"#X c #CDCDCD",
"$X c #CECECE",
"%X c gray81",
"&X c #D0D0D0",
"*X c gray82",
"=X c LightGray",
"-X c gray83",
";X c #D5D5D5",
":X c gray84",
">X c #D8D8D8",
",X c gray85",
"<X c #DADADA",
"1X c gray86",
"2X c #DDDDDD",
"3X c gray87",
"4X c #DFDFDF",
"5X c #E1E1E1",
"6X c gray89",
"7X c gray90",
"8X c #E6E6E6",
"9X c #E9E9E9",
"0X c #EAEAEA",
"qX c gray93",
"wX c #EEEEEE",
"eX c #EFEFEF",
"rX c gray94",
"tX c gray96",
"yX c #F8F8F8",
"uX c #F9F9F9",
"iX c gray98",
"pX c gray99",
"aX c #FEFEFE",
"sX c white",
/* pixels */
"                                                          + + + + + +                                                           ",
"                                              + + + + + % % % % % % % % + + + + +                                               ",
"                                            + % % ; ; ; , , , , , , , , ; ; ; % % +                                             ",
"                                    + + % % ; , , , 4 4 4 4 8 8 8 8 4 4 4 4 , , , ; % % + +                                     ",
"                                + + % ; ; , 4 4 8 8 8 q q q q q q q q q q 8 8 8 4 4 , ; ; % +                                   ",
"                                % % ; , 4 8 8 q q t t t t s s s s s s t t t t q q 8 8 4 , ; % +                                 ",
"                          + % % ; , 4 8 q q t t s s d d d j j j j j j d d d s s t t q q 8 4 , ; % % +                           ",
"                          % ; , 4 4 q q t s s s j j j j c c c c c c c c j j j j s s s t q q 4 4 , ; %                           ",
"                      + % ; , 4 8 q t s d d j j j c m m V V V V V V V V m m c j j j d d s t q 8 4 , ; % +                       ",
"                    + % ; , 4 8 t t s d j c c m m V D D H H H H H H H H D D V m m c c j d s t t 8 4 , ; % +                     ",
"                  + % ; , 8 q t s d j c m V V D H K T T T W W W W W W T T T K H D V V m c j d s t q 8 , ; % +                   ",
"                + % ; , 8 q t s d j c V D H H K T W ~ / / / ` ` ` ` / / / ~ W T K H H D V c j d s t q 8 , ; % +                 ",
"              + % ; , 8 q t d j j c V D H K W W ~ / ` } } } ........} } } ` / ~ W W K H D V c j j d t q 8 , ; % +               ",
"            + % ; , 8 q t d j c m V D K T ~ / ` } } ..@.$.$.$.=.=.$.$.$.@...} } ` / ~ T K D V m c j d t q 8 , ; % +             ",
"            % ; , 4 q t d j c m D H K W / ` } ..@.$.=.1.1.4.4.4.4.4.4.1.1.=.$.@...} ` / W K H D m c j d t q 4 , ; %             ",
"            % , 4 8 t s j c m m H K W / ` ..@.$.=.1.4.8.8.0.0.w.w.0.0.8.8.4.1.=.$.@...` / W K H m m c j s t 8 4 , %             ",
"          % ; , 8 q s d j m D H T ~ ` } @.$.1.4.8.0.w.y.y.a.a.a.a.a.y.y.y.w.0.8.4.1.$.@.} ` ~ T H D m j d s q 8 , ; %           ",
"        + ; , 4 q t d j c V H K ~ / } @.$.1.4.0.w.y.a.h.l.l.v.v.v.l.l.l.h.a.y.w.0.4.1.$.@.} / ~ K H V c j d t q 4 , ; +         ",
"      + % , 4 8 t s j c V H T W ` } @.=.1.8.w.y.a.h.l.v.B.B.V.V.V.V.B.B.B.l.h.a.y.w.8.4.=.@.} ` W T H V c j s t 8 4 , % +       ",
"      + ; , 8 q s d c V D K W / } @.=.4.8.w.a.h.l.v.B.V.F.F.G.P.G.G.F.F.F.B.v.l.h.a.w.8.4.=.@.} / W K D V c d s q 8 , ; +       ",
"      + ; 4 q t d j m D H T / ` @.$.1.8.w.a.l.v.V.F.G.P.T.T.Q.Q.Q.Q.T.T.P.G.F.V.v.l.a.w.8.1.$.@.` / T H D m j d t q 4 ; +       ",
"    + % , 8 q t d c m D K ~ ` ..$.1.8.w.a.h.v.V.G.P.T.Q./.(.(.'.'.(.(./.Q.T.P.G.V.v.h.a.w.8.1.$...` ~ K D m c d t q 8 , % +     ",
"    + ; 4 q t s j c V H T / } @.1.4.0.a.h.v.V.G.T.Q./.(.'.}. X X X X}.'.(./.Q.T.G.V.v.h.a.w.4.1.@.} / T H V c j s t q 4 ; +     ",
"  + % ; 4 q s d j m D K W ` ..$.4.8.y.h.v.V.G.P./.(.}. X+X$X$X&X&X$X$X+X X}.(./.P.G.V.v.h.y.8.4.$...` W K D m j d s q 4 ; % +   ",
"    % , 8 q s j c m H W / } $.1.8.w.a.l.B.F.T.Q.'.}.+X$X&X-X<X<X<X<X-X&X$X+X}.'.Q.T.F.B.l.a.w.8.1.$.} / W H m c j s q 8 , %     ",
"  + ; , 8 t d j c V K W / ..$.1.0.y.h.B.V.P.Q.(.}. X$X-X<X3X6X6X8X6X3X<X-X$X X}.(.Q.P.V.B.h.y.0.1.$.../ W K V c j d t 8 , ; +   ",
"  + ; 4 8 t d j m D T ~ ` ..=.4.w.a.v.V.G.T.(.}. X$X-X3X8X9XwXwXrXwX9X8X3X-X$X X'.(.T.G.V.v.a.w.4.=...` ~ T D m j d t 8 4 ; +   ",
"  + ; 4 q t d c m D T / } @.1.8.y.h.v.F.P.Q.'.}.$X-X3X9XrXtXiXiXiXiXtXrX9X3X-X$X}.(.Q.P.F.v.h.y.8.1.@.} / T D m c d t q 4 ; +   ",
"  % , 4 q s j c V H T / } @.1.8.y.h.B.F.P./.'. X&X<X8XrXiXpXpXpXpXpXpXiXrX8X<X&X X'./.P.F.B.h.y.8.1.@.} / T H V c j s q 4 , %   ",
"  % , 4 q s j c V H W / ..$.4.0.a.l.V.G.T.(. X$X-X3X9XtXpXpXpXpXpXpXpXpXtX9X3X-X$X X(.T.G.V.l.a.0.4.$.} / W H V c j s q 4 , %   ",
"  % , 4 q s j c V H W ` ..$.4.0.a.l.V.P.Q.(. X$X<X6XwXiXpXpXpXpXpXpXpXpXiXwX6X<X$X X(.Q.P.V.l.a.0.4.$...` W H V c j s q 4 , %   ",
"  % , 4 q s j c V H W ` ..=.8.w.a.l.V.P.Q.(. X$X<X6XrXiXpXpXpXpXpXpXpXpXiXwX6X<X$X+X'.Q.P.V.l.a.w.8.=...` W H V c j s q 8 , %   ",
"  % , 4 q s j c V H W ` ..=.8.w.a.l.V.P.Q.(. X$X<X6XwXiXpXpXpXpXpXpXpXpXiXwX6X<X$X X(.Q.P.V.l.a.w.8.=...` W H V c j s q 4 , %   ",
"  % , 4 q s j c V H W ` ..$.4.0.a.l.V.P.Q.(. X$X<X6XwXiXpXpXpXpXpXpXpXpXiXwX6X<X$X X(.Q.P.V.l.a.0.4.$...` W H V c j s q 4 , %   ",
"  % , 4 q s j c V H W / } $.4.0.a.l.V.G.Q.(. X$X-X3X9XtXpXpXpXpXpXpXpXpXtX9X3X-X$X X(.T.G.V.l.a.0.4.$.} / W H V c j s q 4 , %   ",
"  % , 8 q s j c V H T / } @.1.8.y.h.B.F.T./.}. X&X<X8XrXiXpXpXpXpXpXpXiXrX8X<X&X X'./.P.F.B.h.y.8.1.@.} / T H V c j s q 4 , %   ",
"  + , 4 q t d c m D T / } @.1.8.y.h.v.F.P.Q.(.}.$X-X3X9XrXtXiXiXiXiXtXrX9X3X-X$X}.(.Q.P.F.v.h.y.8.1.@.} / T D m c d t q 4 ; +   ",
"  + ; 4 8 t d j m D T ~ ` ..=.4.w.a.v.V.G.T.(.'. X$X-X3X8X9XwXwXrXwX9X8X3X-X$X X'.(.T.G.V.v.a.w.4.=...` ~ T D m j d t 8 4 ; +   ",
"  + ; , 8 t d j c V K W / ..$.1.0.y.l.B.V.P.Q.(.}. X$X-X<X3X6X6X8X6X3X<X-X$X X}.(.Q.P.V.B.h.y.0.1.$.../ W K V c j d t 8 , ; +   ",
"    % , 8 q s j c m H W / } $.1.8.w.a.l.B.F.T.Q.'.}.+X$X&X-X<X<X3X<X-X&X$X+X}.'.Q.T.F.B.l.a.w.8.1.$.} / W H m c j s q 8 , %     ",
"  + % ; 4 q s d j m D K W ` ..$.4.8.y.h.v.V.G.P./.(.}. X+X$X$X&X&X$X$X+X X}.(./.P.G.V.v.h.y.8.4.$...` W K D m j d s q 4 ; % +   ",
"    + ; 4 q t s j c V H T / } @.1.4.0.a.h.v.V.G.T.Q./.(.'.}. X X X X}.'.(./.Q.T.G.V.v.h.a.0.4.1.@.} / T H V c j s t q 4 ; +     ",
"    + % , 8 q t d c m D K ~ ` ..$.1.8.w.a.h.v.V.G.P.T.Q./.(.(.'.'.(.(./.Q.T.P.G.V.v.l.a.w.8.1.$...` ~ K D m c d t q 8 , % +     ",
"      + ; 4 q t d j m D H T / ` @.$.1.8.w.a.l.v.V.F.G.P.T.T.Q.Q.Q.Q.T.T.P.G.F.V.v.l.a.w.8.1.$.@.` / T H D m j d t q 4 ; +       ",
"      + ; , 8 q s d c V D K W / } @.=.4.8.w.a.h.l.v.B.V.F.F.G.G.G.G.F.F.V.B.v.l.h.a.w.8.4.=.@.} / W K D V c d s q 8 , ; +       ",
"      + % , 4 8 t s j c V H T W ` } @.=.1.8.w.y.a.h.l.v.B.B.V.V.V.V.B.B.v.l.h.a.y.w.8.1.=.@.} ` W T H V c j s t 8 4 , % +       ",
"        + ; , 4 q t d j c V H K ~ / } @.$.1.8.0.w.y.a.h.l.l.l.v.v.l.l.l.h.a.y.w.0.4.1.$.@.} / ~ K H V c j d t q 4 , ; +         ",
"          % ; , 8 q s d j m D H T ~ ` } @.$.1.4.8.0.w.y.y.y.a.a.a.a.y.y.y.w.0.8.4.1.$.@.} ` ~ T H D m j d s q 8 , ; %           ",
"            % , 4 8 t s j c m m H K W / ` ..@.$.=.1.4.8.8.0.0.w.w.0.0.8.8.4.1.=.$.@...` / W K H m m c j s t 8 4 , %             ",
"            % ; , 4 q t d j c m D H K W / ` } ..@.$.=.1.1.4.4.4.4.4.4.1.1.=.$.@...} ` / W K H D m c j d t q 4 , ; %             ",
"            + % ; , 8 q t d j c m V D K T ~ / ` } } ..@.$.$.$.=.=.$.$.$.@...} } ` / ~ T K D V m c j d t q 8 , ; % +             ",
"              + % ; , 8 q t d j j c V D H K W W ~ / ` } } } ..........} } ` / ~ W W K H D V c j j d t q 8 , ; % +               ",
"                + % ; , 8 q t s d j c V D H H K T W ~ / / / ` ` ` ` / / / ~ W T K H H D V c j d s t q 8 , ; % +                 ",
"                  + % ; , 8 q t s d j c m V V D H K T T T W W W W W W T T T K H D V V m c j d s t q 8 4 ; % +                   ",
"                    + % ; , 4 8 t t s d j c c m m V D D H H H H H H H H D D V m m c c j d s t t 8 4 , ; % +                     ",
"                      + % ; , 4 8 q t s d d j j j c m m V V V V V V V V m m c j j j d d s t q 8 4 , ; % +                       ",
"                          % ; , 4 4 q q t s s s j j j j c c c c c c c c j j j j s s s t q q 4 4 , ; %                           ",
"                          + % % ; , 4 8 q q t t s s d d d j j j j j j d d d s s t t q q 8 4 , ; % % +                           ",
"                                + % ; , 4 8 q q q t t t t s s s s s s t t t t q q 8 8 4 , ; % +                                 ",
"                                  + % ; ; , 4 4 8 8 8 q q q q q q q q q q 8 8 8 4 4 , ; ; % +                                   ",
"                                    + + % % ; , , , 4 4 4 4 8 8 8 8 4 4 4 4 , , , ; % % + +                                     ",
"                                            + % % ; ; ; , , , , , , , , ; ; ; % % +                                             ",
"                                              + + + + + % % % % % % % % + + + + +                                               ",
"                                                          + + + + + +                                                           "
};
