/* XPM */
static char *_ed46c8df0d44b8df13bb75ab87bebccs2do7YfVTEhDjoGw[] = {
/* columns rows colors chars-per-pixel */
"64 64 235 2 ",
"   c #010301",
".  c #090303",
"X  c #010A01",
"o  c #01020B",
"O  c #09000D",
"+  c #000A0D",
"@  c #080B00",
"#  c #010214",
"$  c #0A0014",
"%  c #01031C",
"&  c #0A001B",
"*  c #020B1D",
"=  c #030B16",
"-  c #000125",
";  c #00032B",
":  c #000C2A",
">  c #070526",
",  c #000232",
"<  c #000A35",
"1  c #00063B",
"2  c #030D3D",
"3  c #031239",
"4  c #000543",
"5  c #010B44",
"6  c #00064F",
"7  c #000A4E",
"8  c #06144D",
"9  c #091A4C",
"0  c #071748",
"q  c #020C51",
"w  c #00035A",
"e  c #040C5B",
"r  c #000652",
"t  c #051454",
"y  c #0A1553",
"u  c #051952",
"i  c #0C1B54",
"p  c #06155E",
"a  c #09155E",
"s  c #05195B",
"d  c #0B195B",
"f  c #000E63",
"g  c #00076F",
"h  c #030D6D",
"j  c #090F69",
"k  c #090F67",
"l  c #071463",
"z  c #081362",
"x  c #04146B",
"c  c #09136C",
"v  c #071969",
"b  c #0C196A",
"n  c #071A63",
"m  c #111969",
"M  c #030C71",
"N  c #020B7C",
"B  c #080F7A",
"V  c #090C75",
"C  c #041371",
"Z  c #0B1575",
"A  c #051874",
"S  c #0A1A72",
"D  c #06147B",
"F  c #0A137B",
"G  c #081B7D",
"H  c #121C75",
"J  c #141C7C",
"K  c #11167E",
"L  c #0E2170",
"P  c #132274",
"I  c #14237C",
"U  c #1A2579",
"Y  c #182876",
"T  c #051283",
"R  c #091484",
"E  c #0D1986",
"W  c #0B158B",
"Q  c #07188C",
"!  c #0C1B8C",
"~  c #04128C",
"^  c #131F84",
"/  c #121D8D",
"(  c #111484",
")  c #040B98",
"_  c #0B1593",
"`  c #0E1C93",
"'  c #0B1B9B",
"]  c #07169A",
"[  c #151D93",
"{  c #131E9C",
"}  c #141A96",
"|  c #070C84",
" . c #0E2187",
".. c #172384",
"X. c #1A2585",
"o. c #14238D",
"O. c #1E2C8C",
"+. c #1A228D",
"@. c #0F2191",
"#. c #172592",
"$. c #1A2394",
"%. c #1C2994",
"&. c #13229B",
"*. c #1B239D",
"=. c #14299C",
"-. c #1D299B",
";. c #202C8E",
":. c #212F87",
">. c #22318C",
",. c #222B9C",
"<. c #21339B",
"1. c #263899",
"2. c #0D1EA3",
"3. c #0C17A7",
"4. c #1A1FA1",
"5. c #141FAB",
"6. c #101AA0",
"7. c #0C18B3",
"8. c #151FB3",
"9. c #151DB9",
"0. c #090EA6",
"q. c #0D21A4",
"w. c #1323A3",
"e. c #1B24A2",
"r. c #1E2BA4",
"t. c #1D23AD",
"y. c #1B2DAB",
"u. c #1F33AB",
"i. c #122EB5",
"p. c #1B2BB3",
"a. c #1925B9",
"s. c #1F33B0",
"d. c #242CA5",
"f. c #232DAC",
"g. c #2227A5",
"h. c #2433A3",
"j. c #2937A3",
"k. c #2B3BA3",
"l. c #2336AC",
"z. c #2B34AD",
"x. c #2D3BAB",
"c. c #232CB4",
"v. c #282CB9",
"b. c #2233B2",
"n. c #2C34B5",
"m. c #2632B8",
"M. c #2A34BA",
"N. c #2938B5",
"B. c #313BB1",
"V. c #2C419C",
"C. c #33429F",
"Z. c #3946B8",
"A. c #3245AC",
"S. c #495CB8",
"D. c #4D60AD",
"F. c #5566B4",
"G. c #1A24C3",
"H. c #1C29C8",
"J. c #1E25D5",
"K. c #232DC7",
"L. c #2A33C4",
"P. c #2E38CD",
"I. c #333ACB",
"U. c #2E37D3",
"Y. c #3238D6",
"T. c #3545C2",
"R. c #3C47C3",
"E. c #3448C3",
"W. c #3947CA",
"Q. c #3049CA",
"!. c #3A4AC5",
"~. c #3947D8",
"^. c #3946E7",
"/. c #3542E0",
"(. c #4A5ACC",
"). c #4454D4",
"_. c #4953DC",
"`. c #4856D7",
"'. c #4B56D0",
"]. c #5565C4",
"[. c #5868C7",
"{. c #5369CE",
"}. c #5362DD",
"|. c #5964DE",
" X c #586AD3",
".X c #5F76DD",
"XX c #5F73D2",
"oX c #5C76CB",
"OX c #667CCD",
"+X c #6077DB",
"@X c #617CD5",
"#X c #4855E8",
"$X c #575CEB",
"%X c #4E63E0",
"&X c #5B66E7",
"*X c #5866FB",
"=X c #6578E7",
"-X c #727FE5",
";X c #6A79F8",
":X c #727FFF",
">X c #626AE7",
",X c #6A82DA",
"<X c #7688EA",
"1X c #7889F7",
"2X c #7381FF",
"3X c #7A8BFD",
"4X c #7E93F9",
"5X c #7591E3",
"6X c #829AE9",
"7X c #8089FF",
"8X c #8393FF",
"9X c #8B94FF",
"0X c #869BFD",
"qX c #8A9DFF",
"wX c #8697F5",
"eX c #919FFF",
"rX c #8FA8EC",
"tX c #8EA3FF",
"yX c #8AA1F7",
"uX c #94A2FF",
"iX c #94ABFF",
"pX c #9CAEFF",
"aX c #98A7FB",
"sX c #9EB3FF",
"dX c #9EBAFD",
"fX c #98B1FA",
"gX c #A1ADFF",
"hX c #A2B5FF",
"jX c #A9B3FF",
"kX c #A4BBFF",
"lX c #AABBFF",
"zX c #B3BFFF",
"xX c #A5C0FF",
"cX c #ACC2FF",
"vX c #B1C6FF",
/* pixels */
"> & o   X X X + # - 4 6 4 5 7 7 7 7 7 7 7 7 7 7 7 7 q q 7 7 7 7 7 7 7 7 7 7 7 7 7 7 7 7 7 7 7 r w w q 7 7 4 , : % # # o   . . O ",
"& $         = : 3 5 z H U Y P L P P P P P P P P P P P P P P P P P P P P P P P P P P P P P P P H X.J m b H H a 5 4 1 ; #     o o ",
"O .       = 5 x J +.d.z.d.-.<.k.j.j.j.j.j.j.j.j.j.j.j.j.j.j.j.j.j.j.j.j.j.j.j.j.j.j.j.j.j.j.j.j.x.x.z.d.z.n.n.f.} K 7 %       o ",
".     X * 5 F 4.d.z.R.>X9XgXhXpXhXhXhXhXhXhXhXhXhXhXsXpXpXpXhXhXhXhXhXhXhXhXhXhXhXhXhXhXhXhXhXhXuXjXlXhXqX:X`.L.L.t.H 8 =   o + ",
"      * q R 8.L.).-XpXlXhXhXkXkXkXhXhXhXhXhXkXkXhXhXhXdXsXdXhXkXhXhXhXkXhXhXhXhXhXhXhXhXhXhXkXkXcXkXdXsXkXxXsXqX}.T.*.^ m < # o ",
"    o 2 F 8.Y.#XuXkXcXpX8X1X,XoX.X.X.X.X.X.X.X.X.X.X.X.X.X.X.X+X.X.X.X+X.X.X.X.X.X.X.X.X.X.X.X.X.X+X=X<X5XrXdXcXiX;XT.e.[ x < # ",
"X   : z e.U.*X8XkXpX<X{.P.G.p.N.b.b.b.b.b.b.b.b.b.b.b.b.b.b.b.b.b.b.b.b.b.b.b.b.b.b.b.b.b.b.b.m.H.H.H.H.m.!.=XtXcXsX<XW.8.' t ; ",
"X o 8 ..m.#X3XvXpXXX1.{ 9.9.3.2.' ' ' ' ' ' ' ' ' ' { { ' ' ' ' ' ' ' ' ' ' ' ' ' ' ' ' ' ' ' 2.8.7.7.a.q.2.p.A.6XkXkX=XU.a.S 1 ",
"% 5 B m.N.8XxXfXS.1. .! _ ~ G A D D D D D D D D D D D D D D D D D D D D D D D D D D D D D D D D D A A D T ! ' &.V.6XhXlX_.v.X.r ",
"; 6 W c. XsXdX@X1. .C A C x n s c c c c c c c c c c c c c c c c c c c c c c c c c c c c c c c c s s s l c D _ _ +.S.yXkX7Xn.<.f ",
"- 5 [ z.6XcXyXA.#.D f s u 8 u s l z z z z z z z z z z z z z z z z z z z z z z z z z z z z z z p t y p z z x D T W -.=XjXjXZ.>.v ",
"- 8 ,.Z.fXxX=Xs.` D l i 0 0 s n l z z z z z z z z z z z z z z z z z z z z z z z z z z z z z z t y y z c x h h V ! $.Z.jXkXXXO.G ",
"% y ,.'.sXsX#XK.2.D x d 0 t c Z c z z z z z z z z z z z z z z z z z z z z z z z z z z z z z z a y y Z F B V x x D #.j.eXpX4Xh.' ",
"- 8 *.&XhXdX^.J.' D j a y t Z Z c z z z z z z z z z z z z z z z z z z z z z z z z z z z z z z z t a c c C x l l D %.z.1XhXqXN.] ",
"; q e.|.kXkX~.G./ c j c a a b c l l l l l l l l l l l l l l l l l l l l l l l l l l l l l l l z M x y 9 8 t p x W e.M.:XkX0Xb.] ",
"; q d.}.hXkX~.a.^ z j c z z z e p p p p p p p p p p p p p p p p p p p p p p p p p p p p p p p z Z C i 0 0 u p C R e.p.2XhXtXu.q.",
"- y =.}.jXkXQ.i.E Z c z z a z z z l z l z l z l z l z l z l z l z l z l z l z l z l z l z p z z z z a d s p l x D $.m.2XsXtXl.' ",
"- y =.%XjXjXQ.i.! Z z z z p z z z z z z z z z z z z z z z z z z z z z z z z z z z z z z z z z a z z z z l l l c Z #.m.:XdXtXl.] ",
"- y =.%XjXjXQ.i.! Z z z z a z z z z z z z z z z z z z z z z z z z z z z z z z z z z z z z z z z z z z z l l c c Z #.m.:XdXtXl.] ",
"- y =.%XjXjXQ.i.! Z z z z a z z z z z z z z z z z z z z z z z z z z z z z z z z z z z z z z z z z z z z l l l x Z #.m.:XdXtXl.] ",
"- y =.%XjXjXQ.i.! Z z z z a z z z z z z z z z z z z z z z z z z z z z z z z z z z z z z z z z z z z z z l l l x Z #.m.:XdXtXl.] ",
"- y =.%XjXjXQ.i.! Z z z z p z z z z z z z z z z z z z z z z z z z z z z z z z z z z z z z z z z z z z z l l l x Z #.m.:XdXtXl.] ",
"- y =.%XjXjXQ.i.! Z z z z p z z z z z z z z z z z z z z z z z z z z z z z z z z z z z z z z z z z z z z l l l c Z #.m.:XdXtXl.] ",
"- y =.%XjXjXQ.i.! Z z z z p z z z z z z z z z z z z z z z z z z z z z z z z z z z z z z z z z z z z z z l l l c Z #.m.:XsXtXl.] ",
"- y =.%XjXjXQ.i.! Z z z a a z z z z z z z z z z z z z z z z z z z z z z z z z z z z z z z z z z z z z z z l l c Z #.m.:XsXtXl.] ",
"- y =.%XjXjXQ.i.! Z z z a a z z z z z z z z z z z z z z z z z z z z z z z z z z z z z z z z z z z z z z z l l c Z #.m.:XsXtXl.] ",
"- y =.%XjXjXQ.i.! Z z z a a z z z z z z z z z z z z z z z z z z z z z z z z z z z z z z z z z z z z z z l l c x Z #.m.:XsXtXl.] ",
"- y =.%XjXjXQ.i.! Z z z a a z z z z z z z z z z z z z z z z z z z z z z z z z z z z z z z z z z z z z z l l l c Z #.m.:XsXtXl.] ",
"- y =.%XjXjXQ.i.! Z z z a p z z z z z z z z z z z z z z z z z z z z z z z z z z z z z z z z z z z z z z l l l x Z #.m.:XsXtXl.] ",
"- y =.%XjXjXQ.i.! Z z z a p z z z z z z z z z z z z z z z z z z z z z z z z z z z z z z z z z z z z z z l l l x Z #.m.:XdXtXl.] ",
"- y =.%XjXjXQ.i.! Z z z a p z z z z z z z z z z z z z z z z z z z z z z z z z z z z z z z z z z z z z z l l l c Z #.m.:XdXtXl.] ",
"- y =.%XjXjXQ.i.! Z z z z p z z z z z z z z z z z z z z z z z z z z z z z z z z z z z z z z z z z z z z l l l c Z #.m.:XdXtXl.] ",
"- y =.%XjXjXQ.i.! Z z z a a z z z z z z z z z z z z z z z z z z z z z z z z z z z z z z z z z z z z z z l l l c Z #.m.:XdXtXl.] ",
"- y =.%XjXjXQ.i.! Z z z a a z z z z z z z z z z z z z z z z z z z z z z z z z z z z z z z z z z z z z z l l l x Z #.m.:XdXtXl.] ",
"- y =.%XjXjXQ.i.! Z z z z p z z z z z z z z z z z z z z z z z z z z z z z z z z z z z z z z z z z z z z z l l c A #.m.:XsXtXl.] ",
"- y =.%XjXjXQ.i.! Z z z a p z z z z z z z z z z z z z z z z z z z z z z z z z z z z z z z z z z z z z z z l l c A #.m.:XsXtXl.] ",
"- y =.%XjXjXQ.i.! Z z z z p z c z z z z z z z z z z z z z z z z z z z z z z z z z z z z z z z a z z z z l l l c Z #.m.:XsXtXl.] ",
"- y =.%XjXjXQ.i.! Z z z z p z z z z z z z z z z z z z z z z z z z z z z z z z z z z z z z z z a z z z z l l c c Z #.m.:XsXtXl.] ",
"- y =.%XjXjXQ.i.! Z z z a p z z z z z z z z z z z z z z z z z z z z z z z z z z z z z z z z z z z z z z l l l c Z #.m.:XsXtXl.] ",
"- y =.%XjXjXQ.i.! Z z z a p z z z z z z z z z z z z z z z z z z z z z z z z z z z z z z z z z z z z z z l l l c Z #.m.:XsXtXl.] ",
"- y =.%XjXjXQ.i.! Z z z a a z c z z z z z z z z z z z z z z z z z z z z z z z z z z z z z z z z z z z z l l l c Z #.m.:XsXtXl.] ",
"- y =.%XjXjXQ.i.! Z z z a a z c z z z z z z z z z z z z z z z z z z z z z z z z z z z z z z z z z z z z l l l x Z #.m.:XdXtXl.] ",
"- y =.%XjXjXQ.i.! Z z z a p z z z z z z z z z z z z z z z z z z z z z z z z z z z z z z z z z z z z z z z l l c Z #.m.:XdXtXl.] ",
"- y =.%XjXjXQ.i.! Z z z a p z z z z z z z z z z z z z z z z z z z z z z z z z z z z z z z z z z z z z z z l l c Z #.m.2XdXtXl.] ",
"- y =.%XjXjXQ.i.! Z z z a p z c z z z z z z z z z z z z z z z z z z z z z z z z z z z z z z z a z z z z l l l c Z #.m.:XsXtXl.] ",
"- y =.%XjXjXQ.i.! Z z z a p z z z z z z z z z z z z z z z z z z z z z z z z z z z z z z z z z a z z z z l l l c Z #.m.:XsXtXl.] ",
"- y =.%XjXjXQ.i.! Z z z a p z z z z z z z z z z z z z z z z z z z z z z z z z z z z z z z z z z z z z z l l l c Z #.m.:XsXtXl.] ",
"- y =.}.jXjXQ.a.! Z z z a p z z z l z p a p z l z l z l z l z l z l z l z l z l a p z l z l z z l l l l l l l c A #.m.:XsXtXl.] ",
"- 7 h.}.dXpX^.H.E z z z e t a t p p p p p p p p p p p p p p p p p p p p p p p p p p p p p p p l l l l l z l p l S / m.:XlXqXu.w.",
"< q *.|.kXdX/.G.E l l z t t z z l l z l l l l l l l l l l l l l l l l l l l l l l l l l l l l l l l l l l l s s x #.M.2XhXuXl.' ",
"1 e { |.kXdX~.G.! c l a y y c C c z z z z z c c z z z z c z z z z z z z z z c z z z z z c z z z l l c c l p 9 u c #.I.:XkXqXx.Q ",
", t e.'.dXdX`.a.` A z s 9 y Z C c z z z z z z z z z z z z z z z z z z z z z z z z z z z z z z z a a z c z s t p K [ n.8XgXwXj.E ",
"% 8 ,.T.fXkX=Xp.' T x s 8 t x C z z z z z z z z z z z z z z z z z z z z z z z z z z z z z z z a t y a t y p h N _ { j.jXaX<X%.o.",
"# 5 $.M.0XxX4Xl.w.~ h l t p x x l z z z z z z z z z z z z l l l z z z z z z z z z z z z z z z z a a t t t z | ) } *.].lXjX].,.E ",
"# 2 ( c. XdXsX{.r.' T D M x v l l l l l l l l l l l l l l l l l l l l l l l l l l l l l l l l z c c t t l F ) 0.e.A.rXhXuXz.h.N ",
"o 2 V c.B.tXcXtXx.-./ W T T A x x C C C C C C C C C C C C C C C C C C C C C C C C C C C C C C C F Z x z x R 3.3.<.OXsXcX&XM.$.g ",
"  % c 4.c.&XpXkXwXS...^ &.' Q @.! ! ! ! ! ! ! ! Q ! ! ! ! ! ! ! ! ! ! ! ! ! ! ! ! ! ! ! ! ! ! ` ` W W #.o.! &.r.OXfXcX1X~.a.R e ",
"X o 4 ( t.I.;XpXcXwXF.1.r.c.y.w.y.y.y.y.y.y.y.y.y.y.y.y.y.y.y.y.y.y.y.y.y.y.y.y.y.y.y.y.y.y.y.y.l.f.f.e.&.h.(.<XdXkX0X).a.5.v , ",
"    % e *.a.P.;XgXjXkXaX<X(.!.!.E.E.E.E.E.E.E.E.E.E.E.E.E.E.E.E.E.E.E.E.E.E.E.E.E.E.E.E.E.E.E.E.R.T.W.`..X4XiXdXkX3X`.M.e.Z < # ",
"  @ o ; m $.t.I.$X9XzXkXpXlXcXsXsXsXsXsXsXsXsXsXsXsXsXsXpXsXsXhXsXsXsXsXsXsXsXsXsXsXsXsXsXsXsXsXpXhXhXpXsXkXkXkX;X~.c.g.U 1 #   ",
". .   o % i X.e.L.Y.$X9XjXsXsXkXhXhXhXhXhXhXhXhXhXhXhXsXsXsXhXhXhXhXhXhXhXhXhXhXhXhXhXhXhXhXhXhXlXkXhXkXkXiX.XZ.P.L.*.k ; o     ",
"O o o X   = 9 S g.v.v.f.C.D.[.].[.[.[.[.[.[.[.[.].].].].].].].[.[.[.[.[.[.[.[.[.[.[.[.[.[.[.[.[.S.[.[.S.A.k.j.j.*.[ c 1 o       ",
"O $ & =   X + : t M / ,.:.I &.f.-.;.;.;.;.;.;.;.O.O.;.;.O.O.O.;.;.;.;.;.;.;.;.;.;.;.;.;.;.;.;.;.;.O.O.O.-.%.I b d 1 ; * @   o $ ",
"$ & % #   X X + ; 6 g g f A ) ) N M M M M M M M g M M M M M M M M M M M M M M M M M M M M M M M M h h M N M e 5 ; % # o   . $ & "
};
