/* XPM */
static char *_8c0b297634f4f85bafd695d3b02b839ndZW4lbV5jwyil9Y[] = {
/* columns rows colors chars-per-pixel */
"64 64 220 2 ",
"   c #010101",
".  c #0A0301",
"X  c #030A01",
"o  c #0C0A00",
"O  c #01010B",
"+  c #09030B",
"@  c #030909",
"#  c #0C0A0B",
"$  c #110400",
"%  c #130B00",
"&  c #190D00",
"*  c #0E1300",
"=  c #121100",
"-  c #1B1400",
";  c #1B1A00",
":  c #010013",
">  c #090114",
",  c #0A0A12",
"<  c #02011B",
"1  c #0E081D",
"2  c #070518",
"3  c #200C00",
"4  c #231C00",
"5  c #2B1F00",
"6  c #211500",
"7  c #242400",
"8  c #2C2400",
"9  c #292A00",
"0  c #342C00",
"q  c #382E00",
"w  c #322500",
"e  c #363200",
"r  c #3B3300",
"t  c #3D3A00",
"y  c #303517",
"u  c #080522",
"i  c #422D00",
"p  c #463E00",
"a  c #4A3E00",
"s  c #543E00",
"d  c #3C4200",
"f  c #4A4401",
"g  c #484705",
"h  c #534C01",
"j  c #524A0C",
"k  c #565400",
"l  c #5B5305",
"z  c #5E5804",
"x  c #5A5214",
"c  c #625400",
"v  c #695E0C",
"b  c #615A14",
"n  c #635610",
"m  c #676100",
"M  c #6C6402",
"N  c #62610B",
"B  c #6B6409",
"V  c #726900",
"C  c #756A0E",
"Z  c #797608",
"A  c #636310",
"S  c #69601D",
"D  c #766E16",
"F  c #7B7511",
"G  c #444B22",
"H  c #4C5423",
"J  c #6B6B24",
"K  c #746D25",
"L  c #7B732B",
"P  c #7A772F",
"I  c #7B7A39",
"U  c #857C0C",
"Y  c #807500",
"T  c #857E15",
"R  c #877D19",
"E  c #807A22",
"W  c #857D33",
"Q  c #798400",
"!  c #8B8106",
"~  c #938C06",
"^  c #878519",
"/  c #948B1A",
"(  c #939314",
")  c #9F9F1B",
"_  c #A09508",
"`  c #A49515",
"'  c #A49F10",
"]  c #AEA901",
"[  c #AAA008",
"{  c #B4AD00",
"}  c #B7AB09",
"|  c #BFB40A",
" . c #A5A51C",
".. c #B7AA1D",
"X. c #8B8624",
"o. c #978A27",
"O. c #999428",
"+. c #9A8F33",
"@. c #90923F",
"#. c #A49A29",
"$. c #A39828",
"%. c #A9A224",
"&. c #A4A226",
"*. c #B3AC2B",
"=. c #BBB32C",
"-. c #BBB828",
";. c #AAA032",
":. c #B2A935",
">. c #BEB338",
",. c #CFB81A",
"<. c #C9BD29",
"1. c #C3BB34",
"2. c #C7BE3F",
"3. c #C4B837",
"4. c #C8C01F",
"5. c #D1C71A",
"6. c #F7DC0F",
"7. c #ECE602",
"8. c #EDEB00",
"9. c #EDE90C",
"0. c #F4E502",
"q. c #FBE600",
"w. c #F5ED01",
"e. c #FDED02",
"r. c #F4E508",
"t. c #F5EA0C",
"y. c #FEED0B",
"u. c #F5F300",
"i. c #FFF101",
"p. c #F7F800",
"a. c #FEF902",
"s. c #F5F209",
"d. c #FEF20B",
"f. c #FEFB0D",
"g. c #EBEB1C",
"h. c #EFE417",
"j. c #FEE711",
"k. c #F4EB14",
"l. c #FDED13",
"z. c #F2E61B",
"x. c #FCED1B",
"c. c #F6E619",
"v. c #EEF013",
"b. c #FEF313",
"n. c #FFFB14",
"m. c #F5F21B",
"M. c #FEF31B",
"N. c #FEFB1B",
"B. c #F7F413",
"V. c #C6C527",
"C. c #DCCF29",
"Z. c #D2D12A",
"A. c #D8D526",
"S. c #CCC636",
"D. c #CDC834",
"F. c #CBC13D",
"G. c #C7C734",
"H. c #D4CC34",
"J. c #D3C93A",
"K. c #D9CE39",
"L. c #D4C737",
"P. c #DDD434",
"I. c #DDD43A",
"U. c #D5D535",
"Y. c #E9DE25",
"T. c #E8DF28",
"R. c #E2D82C",
"E. c #E2DA33",
"W. c #E5DC3B",
"Q. c #EADE3E",
"!. c #DFE833",
"~. c #ECE425",
"^. c #EFED21",
"/. c #E6E22C",
"(. c #ECEB2C",
"). c #E7E229",
"_. c #F5EC24",
"`. c #FAEE23",
"'. c #F5EA2E",
"]. c #FBED2C",
"[. c #F5E528",
"{. c #F5F223",
"}. c #FEF323",
"|. c #FCFC24",
" X c #FDF22C",
".X c #FFFB2B",
"XX c #F6FE21",
"oX c #E5E334",
"OX c #ECE434",
"+X c #EDEB32",
"@X c #ECE43B",
"#X c #E7E33A",
"$X c #F5E834",
"%X c #FAEC34",
"&X c #F5E53B",
"*X c #F3EA39",
"=X c #FFEF39",
"-X c #F0E335",
";X c #EEF837",
":X c #FCF334",
">X c #F5F239",
",X c #FDF43B",
"<X c #F9F934",
"1X c #8E9341",
"2X c #A99A45",
"3X c #9DA147",
"4X c #B3AF44",
"5X c #B7BC46",
"6X c #D4CA41",
"7X c #DCCE47",
"8X c #DCD945",
"9X c #E6DB46",
"0X c #E7DF50",
"qX c #F8F240",
"wX c #E7E358",
"eX c #FCF75B",
"rX c #EFE948",
"tX c #DFDB6D",
"yX c #FDED62",
"uX c #E3E465",
/* pixels */
"                          O O         O : : : O           O > > + .                 O                                           ",
"                            O           O O O               O O                                                                 ",
"                                                              . O O                                                             ",
"                                        X X X X X X X X X X X X         X X X X                                                 ",
"                                O O                       X X X X                                                               ",
"                                                O O O     X X X X X X     X X X                                                 ",
"                                            O             o o o X X X X                   X X X                                 ",
"                                              . % 6 q j b L W W X.E D b g 0 - $ .                 O                             ",
"                    O O O O O   O O     . o 5 a F / =.D.P.#XOXOX+X/.E.I.J.*.R v q 6 %     : u < O O O     X X                   ",
"                + O O O O O     O + o o 4 z #.6XW.*X:X}.l.t.y.w.d.b.b.h.[.,XrX9X3.T p - . O < < O             X                 ",
"                  O O : O     X     - k ) Z.(..XM.M.b.y.e.i.i.i.q.e.i.d.d.y.t.z.:XE.1.^ t o           X       .                 ",
"                O O > O         o t T G.>Xm.8.w.i.e.e.e.e.e.e.e.a.i.i.i.e.e.i.a.d.m.:XW.%.B 8 .   X X                           ",
"                O O O       X = h ;.wX*Xk.d.a.i.a.a.d.d.d.i.e.e.0.e.i.e.e.a.a.e.i.e.b._.@XJ.! r o X     X X X                   ",
"O               O O   X   X 7 N 2.9X%Xh.w.a.a.e.q.q.q.y.d.i.a.a.f.d.w.d.d.e.q.i.i.i.i.d.`.%XC.%.t * X X X     O                 ",
"O O                 . X X ; J 5X+Xx.b.d.i.q.q.i.d.i.d.d.i.u.p.p.8.B.M.x.`. X}.j.n.e.e.e.d.N.`.E.@.G o   X                       ",
"                  +     - A 5XrXk.i.e.q.i.i.e.i.i.e.i.d.i.u.u.p.s..X{ e 0 [ =Xx.l.q.i.d.e.0.e. XuX1Xe X   X                     ",
"        O       O O   o z 2./.}.d.i.i.i.i.i.i.i.i.i.i.i.i.i.i.i.d.).- o o ; E.x.y.e.y.y.i.i.i.d.(.8XO.8   X     X X             ",
"        O       O     p #.W.x.i.i.i.i.i.i.i.i.i.i.i.i.i.i.i.i.i.d.| % X X o ~ `.y.e.y.y.u.p.i.i.n.^.9XC - o   X X X             ",
"                O   ; X.0X$Xb.e.i.i.i.i.i.i.i.i.i.i.i.i.i.i.i.i.b.} .   # X V :Xl.e.y.d.p.p.a.i.d.k.T.S.m o     O O             ",
"O                 = k G.qXz.w.i.i.i.i.i.i.i.i.i.i.i.i.i.i.i.i.i.0.E.$   o o ' _.y.e.y.i.p.p.a.i.e.b.x.*X` 8 o   : : O           ",
": O   X           r  ./.m.d.q.i.i.i.i.i.i.i.i.i.i.i.i.i.i.i.i.i.i.:X- $ o % A.b.i.i.e.y.d.d.d.i.i.q.N.h.K.+.& + < < O   X     O ",
": O   X         o N U.k.u.f.e.i.i.i.i.i.i.i.i.i.i.i.i.i.i.i.i.i.e.z.F.t 8 G.g.i.i.i.y.y.y.d.d.d.i.q.M.:XyX2X& + : :     X   O : ",
": O   X     O   w O.(.s.e.a.i.q.i.i.i.i.i.i.i.i.i.i.i.i.i.i.i.i.l.}.~.<Xg.v.f.i.e.y.e.i.i.i.d.d.q.|.[.K.o.5 . .             O : ",
"O     X       . f 1..Xa.i.q.d.i.i.i.i.i.i.i.i.i.i.i.i.i.i.i.i.i.y.M.r.f.p.p.i.i.e.e.e.i.i.i.l.x.`.OX..a $ . . .           O O O ",
"      X   O   & R W.k.e.a.e.d.q.i.i.i.i.i.i.i.i.i.i.i.i.i.i.i.i.i.e.y.d.y.e.i.a.i.e.e.i.i.d.l.~.V.m % . .     X         O O O   ",
"      X   O   4 $.*Xb.e.i.e.i.e.i.i.i.i.i.i.i.i.i.i.i.i.i.i.i.i.e.i.e.y.l.b.i.0.i.a.f.e.r.:XR.! ; X   o +     X         O O     ",
"      X       t =. Xl.e.d.q.i.i.i.i.i.i.i.i.i.i.i.i.i.i.i.i.i.i.a.e.y.x.c.6.j.N.a.w.7.M.&X` i .               X                 ",
"      X     o x H.`.y.e.d.e.w.i.i.i.i.i.i.i.i.i.i.i.i.i.i.i.i.i.q.i.y.j.x.}.M.7.N.m.:X<.s $ .   > < : O @ @ X                   ",
"+     X     o J P.l.e.e.d.w.u.i.i.i.i.i.i.i.i.i.i.i.i.i.i.i.i.i.i.y.y.j.j.y.B.XX;XV.M 3 $ .   > : : O @ X       O O             ",
"+     X X X o L #Xd.i.i.i.i.u.p.i.i.i.i.i.i.i.i.i.i.i.i.i.i.i.i.i.d.y.y.l.M.^.!.Q 9 . . > > O   , O           , O O             ",
"> O   X X X o W @Xy.i.i.i.a.p.p.i.i.i.i.i.i.i.i.i.i.i.i.i.i.i.i.8.a.i.q.x.%X[ d X X     O   X X X       + + O O                 ",
"< > X X X X o W OXw.i.e.i.a.p.p.i.i.i.i.i.i.i.i.i.i.i.i.i.i.i.i.f.8.t. X,.c % X X X X +     X X X X X                         O ",
"2 :   X X X o W OXw.a.e.e.a.p.p.i.i.i.i.i.i.i.i.i.i.i.i.i.i.i.i.9.<XP.V 6 o o   X X X X                                   O O O ",
"> O X X X X o P oXy.i.i.i.a.p.p.i.i.i.i.i.i.i.i.i.i.i.i.i.i.i.i..X] f & o     O O X X X       O O O                         O O ",
"O   X   X X o K E.t.i.i.e.e.u.a.i.i.i.i.i.i.i.i.i.i.i.i.i.i.i.i.w.r.{ h % . $ O O O       X X     O         O : O               ",
"    X     X o b P.k.e.e.d.e.i.i.i.i.i.i.i.i.i.i.i.i.i.i.i.i.i.i.a.e.k.Y._ r . . + O           X           O : : : O             ",
"              g H.`.y.e.d.y.i.i.i.i.i.i.i.i.i.i.i.i.i.i.i.i.i.i.q.e.y.t.z.5.Y w $ .   + X X X X X X X                           ",
"          O   0 =.].l.e.d.e.d.e.i.i.i.i.i.i.i.i.i.i.i.i.i.i.i.i.e.i.d.d.n.}.Y.<.c 8 .   X X   X X X X                           ",
"          O   - / OXM.e.i.q.d.e.i.i.i.i.i.i.i.i.i.i.i.i.i.i.i.i.e.i.e.y.j.l.x.}.^.] k -                                     O O ",
"          O   $ M P.x.e.i.q.d.d.i.i.i.i.i.i.i.i.i.i.i.i.i.i.i.i.i.i.e.e.l.M.d.e.i.N.R.~ r o   o             O               O : ",
":         O O . r 1._.i.i.e.i.e.i.i.i.i.i.i.i.i.i.i.i.i.i.i.i.i.a.a.i.i.e.e.e.y.y.r.b..XA.Z 8 . o O O 1 : : < : O           O : ",
": O   X     O   6 T ).d.i.a.i.q.i.i.i.i.i.i.i.i.i.i.i.i.i.i.i.i.a.p.i.i.i.i.e.e.b.b.e.7.M.,X1.C - . .   O u 1 : O               ",
"< O         O   o f V.|.w.a.i.e.i.i.i.i.i.i.i.i.i.i.i.i.i.i.i.i.d.d.p.a.i.i.i.i.0.i.d.y.j.}.}.Y.-.f % o o     ,                 ",
": O         O     4 ( +Xm.t.e.i.i.i.i.i.i.i.i.i.i.i.i.i.i.i.i.i.d.d.p.a.i.i.i.i.a.e.i.b.l.0.q.f.{.oX .t o o o                   ",
"O                 o f -.qXz.y.i.i.i.i.i.i.i.i.i.i.i.i.i.i.i.i.i.i.i.d.d.i.i.i.i.i.i.e.e.i.a.i.e.8.|.(.U.F %   .                 ",
"                O   o Z 8X*XM.i.i.i.i.i.i.i.i.i.i.i.i.i.i.i.i.i.i.i.e.y.i.i.i.i.q.i.i.i.e.e.i.e.u.N.~.eX4X7                   O ",
"        O O     : O X e o.I.}.i.i.i.i.i.i.i.i.i.i.i.i.i.i.i.i.i.i.i.e.e.i.i.i.d.N.b.y.d.f.i.i.e.M.:X<.#.n .   #                 ",
"        O O     : O o X t :.#X_.d.i.i.i.i.i.i.i.i.i.i.i.i.i.i.i.i.i.i.i.i.i.i.y.r.l.b.e.e.d.a.t.-X7XU 8 . . .                   ",
"        O O O   O O X   * g 3XwX_.d.y.y.d.e.q.d.y.e.e.i.a.i.i.p.a.i.w.e.e.e.e.y.e.e.d.d.e.y.d.'.tXI 7 o                         ",
"          O O O O     X X * H 3X@X}.M.y.y.d.e.q.y.e.e.i.i.i.a.a.a.i.i.d.d.y.y.e.i.i.i.q.t.}.`.I.P y X                           ",
"          O O O +     o X X * g %.P.,Xm.w.i.i.i.i.e.e.e.i.i.i.i.i.e.e.i.y.y.e.i.a.i.w.u.}.>XV.U 7 X                             ",
"                          X X o t ^ S.oXm.f.p.i.a.i.i.d.d.i.a.i.a.a.i.i.i.e.i.i.w.i.n.|.E.*.M 7 o   X X                         ",
"                          X X     9 A &.U.<Xm.s.w.w.y.e.e.e.e.e.i.i.e.e.e.e.i.p.s.m.+XD.^ g ;   X           .                   ",
"                                    = t Z  .Z.>X X X}.x.l.l.d.d.y.l.d.b.n.N.N.{.+XV.( N 7   O >             +                   ",
"                      .       O 2 :     ; t D ;.2.K.Q.&X$X%X].]._.`._.'.$XW.J.>.o.b 8 o     : : +     .                         ",
"                          + O O : : O     . % 5 l D $.>.F.6XJ.L.H.H.S.1.:.o.v a - o     O : < : @     .                         ",
"                          O O O         O   . . . % 4 q p h l l z h f r 8 - $ . .         O : :                                 ",
"                          O O O           O O   . . . o o o o X o o . . .   + .                                                 ",
"                          O O                                           O : : O O                                               ",
"                                                  O O O       X       O O O O O O                                               ",
"                                O O                         X   O O     X X X       O O                                         ",
"                                O O                   X X X X @ : O X X X X X       O O O O                                     ",
"                                        O O O   X X X       O O           X X @                                                 ",
"                                X       : : : O           O : O   X       O O O O                                               "
};
