/* XPM */
static char *df22f31ae6e14b37bf46daa9dca2b081iI0UKMuc2rAAmELY[] = {
/* columns rows colors chars-per-pixel */
"64 64 236 2 ",
"   c #010101",
".  c #0B0201",
"X  c #030A01",
"o  c #0C0A01",
"O  c #02010B",
"+  c #0B010A",
"@  c #04080C",
"#  c #0B0B0A",
"$  c #130301",
"%  c #120B00",
"&  c #190C00",
"*  c #130809",
"=  c #0C1300",
"-  c #111100",
";  c #1C1200",
":  c #1B1A01",
">  c #131900",
",  c #030012",
"<  c #0B0213",
"1  c #0A0911",
"2  c #04001B",
"3  c #080716",
"4  c #131019",
"5  c #15031D",
"6  c #221500",
"7  c #231C00",
"8  c #2C1D00",
"9  c #222100",
"0  c #2C2400",
"q  c #292904",
"w  c #312501",
"e  c #332B00",
"r  c #3C2C00",
"t  c #3C3301",
"y  c #3C3900",
"u  c #353607",
"i  c #020020",
"p  c #433500",
"a  c #443D06",
"s  c #434200",
"d  c #4C4300",
"f  c #4D4A00",
"g  c #424607",
"h  c #524601",
"j  c #584A03",
"k  c #4E5700",
"l  c #5C5101",
"z  c #595A00",
"x  c #565308",
"c  c #474318",
"v  c #584C10",
"b  c #5A5915",
"n  c #675700",
"m  c #635D00",
"M  c #665B09",
"N  c #715C00",
"B  c #625E15",
"V  c #656400",
"C  c #696500",
"Z  c #646900",
"A  c #6C6C00",
"S  c #6E650B",
"D  c #766C03",
"F  c #756F0D",
"G  c #7C7300",
"H  c #74720E",
"J  c #736B19",
"K  c #7D7717",
"L  c #686311",
"P  c #736A29",
"I  c #7D7523",
"U  c #7B752B",
"Y  c #757335",
"T  c #786F34",
"R  c #79794D",
"E  c #837400",
"W  c #806E1C",
"Q  c #827F14",
"!  c #86792D",
"~  c #867E3D",
"^  c #8F8500",
"/  c #868604",
"(  c #979001",
")  c #878519",
"_  c #968706",
"`  c #A49C1D",
"'  c #B0A404",
"]  c #BFBF00",
"[  c #ABA81C",
"{  c #B1AE1A",
"}  c #8C8727",
"|  c #938D2B",
" . c #999326",
".. c #8E8133",
"X. c #A39B2E",
"o. c #A19E3A",
"O. c #AAA524",
"+. c #B7AA33",
"@. c #B8B63A",
"#. c #B5B22C",
"$. c #C2BA04",
"%. c #C5BB1E",
"&. c #C1B627",
"*. c #C2BD39",
"=. c #D3BF3C",
"-. c #D3CD1A",
";. c #F2DF00",
":. c #FADD00",
">. c #E9D617",
",. c #EEE401",
"<. c #EBE50B",
"1. c #ECEA07",
"2. c #F4E400",
"3. c #FDE502",
"4. c #F5EB01",
"5. c #FEED02",
"6. c #F5EC0B",
"7. c #FEED0B",
"8. c #FBE30B",
"9. c #F6F402",
"0. c #FEF201",
"q. c #FEFA03",
"w. c #F4F209",
"e. c #FEF20B",
"r. c #FEFA0B",
"t. c #ECEA1A",
"y. c #F4ED15",
"u. c #FDEE14",
"i. c #F3E61D",
"p. c #F5ED1A",
"a. c #FBED1C",
"s. c #F1E613",
"d. c #F5F115",
"f. c #FDF313",
"g. c #FFFD12",
"h. c #F7F41C",
"j. c #FEF21B",
"k. c #FFFB1A",
"l. c #C7C32C",
"z. c #CBC625",
"x. c #D9D22A",
"c. c #C9C43B",
"v. c #DDCE35",
"b. c #D4D33E",
"n. c #DBD635",
"m. c #E6DB29",
"M. c #E4DE32",
"N. c #EFDD33",
"B. c #E3E323",
"V. c #E7E52A",
"C. c #ECE62A",
"Z. c #EDEC2A",
"A. c #EAE728",
"S. c #F1E629",
"D. c #F4EC29",
"F. c #FCEE2A",
"G. c #F1E624",
"H. c #FDF324",
"J. c #FFFD23",
"K. c #F2F22B",
"L. c #F9F22B",
"P. c #F9F526",
"I. c #EFEB32",
"U. c #EDE239",
"Y. c #E8E539",
"T. c #F3EC39",
"R. c #F6E836",
"E. c #F4F234",
"W. c #FCF436",
"Q. c #FFFC34",
"!. c #FDFC3C",
"~. c #F4F039",
"^. c #E7F23C",
"/. c #9C9F52",
"(. c #9B974E",
"). c #9EA74C",
"_. c #BFAF58",
"`. c #B2AD4F",
"'. c #A3A261",
"]. c #AFB56D",
"[. c #BBB76B",
"{. c #BDB577",
"}. c #C3BC5C",
"|. c #BFC36E",
" X c #BDC879",
".X c #D3CE45",
"XX c #DACC49",
"oX c #DFDF41",
"OX c #C5C15E",
"+X c #C5C048",
"@X c #E2D647",
"#X c #E2DB45",
"$X c #E2DC58",
"%X c #EDEA45",
"&X c #ECE54B",
"*X c #E9E749",
"=X c #F1ED4E",
"-X c #F5E946",
";X c #EAF247",
":X c #FCF243",
">X c #FEF944",
",X c #FDF34C",
"<X c #F4F446",
"1X c #E4E354",
"2X c #EEED54",
"3X c #E9E65B",
"4X c #ECE959",
"5X c #F6EC5D",
"6X c #F2E853",
"7X c #F5F552",
"8X c #FFF656",
"9X c #FCFB54",
"0X c #F4F359",
"qX c #F5F959",
"wX c #EBF055",
"eX c #C9C76A",
"rX c #C6D06F",
"tX c #CAC372",
"yX c #D2D471",
"uX c #EAE667",
"iX c #F3E964",
"pX c #EDF061",
"aX c #FDFC63",
"sX c #FBF768",
"dX c #EFE470",
"fX c #F9EE70",
"gX c #F5F374",
"hX c #FAF475",
"jX c #FFF974",
"kX c #F6F37B",
"lX c #FEFC7B",
"zX c #F5F875",
"xX c #E7F177",
"cX c #DDE183",
"vX c #FEFF93",
"bX c #EFF085",
/* pixels */
"                                      O O O           O O O   . . . .   O O O O                                                 ",
"                                                      O O                   O                                                   ",
"                                                          X X X X                                                               ",
"                                                O O                 O     X X X             O O                                 ",
"                                2 2 O         O , ,         O       O O                     , ,                                 ",
"                              O 2 2 O         O O O             . .   O O @ X X               O                                 ",
"                                O             O + . . . . o o o o . . .                     .                                   ",
"                                          . . . . . ; e f L I ! ..! P v t 7 o                                                   ",
"                                    O , ,   . . 0 m ` l.x.B.Z.E.-X-XU.M.z.[ K y % . . , 2 , O                                   ",
"                                    O O   . e I @.n.T.L.d.9.9.9.u.u.7.7.J.Q.n.c.| a $ + , , <                                   ",
"                                  X     7 x  .#XI.P.j.u.7.e.0.0.7.7.r.9.4.w.6.Q.-X+.J t . . .                                   ",
"                                      9 J +X%XL.f.e.5.3.7.7.7.5.g.4.e.g.0.0.0.4.H.:X@X .y . . .                                 ",
"                                o . 9 } .X<XJ.4.0.q.r.e.f.u.u.7.4.f.i.F.j.2.0.r.5.j.D.M.{ f . . .                               ",
"                                . 6 K $X:Xp.9.0.5.5.5.7.7.7.u.f.h.$.l n -.H.5.3.5.e.6.d.E.[ p . .                               ",
"                              . & W XXT.j.9.0.0.0.e.7.7.5.5.5.u.V.C $ $ E R.7.0.7.j.e.4.w.V. .w .                               ",
"                              . j c.:Xs.e.q.5.0.5.7.7.0.0.0.0.f.<Xs ; $ j U.k.5.u.8.e.0.4.J.@XI .                               ",
"            O O             o 7 &.>.H.f.5.0.0.5.0.0.0.0.0.0.0.e.E.z % $ N N.f.0.3.u.f.e.0.7.G.XXc         #                     ",
"            O O           . . M m.8.f.7.3.0.0.0.0.0.0.0.0.0.0.e.t.z.w r v.W.2.5.k.8.5.7.5.0.H.@Xa         X                     ",
"            O O       X   . : `.R.e.e.7.7.0.0.0.0.0.0.0.0.0.0.0.e.H.S.R.j.3.q.0.2.7.4.0.q.6.m.dXq         X                     ",
"              O       X . . f $XF.7.7.e.0.0.0.0.0.0.0.0.0.0.0.0.r.2.a.j.5.q.0.5.e.7.r.w.y.~.+.t %         X                     ",
"                      X . o } %Xp.5.7.0.0.5.5.0.0.0.0.0.0.0.0.0.3.k.7.7.e.5.0.g.9.e.d.Z.l.m $ .           X                     ",
"        .           O   . ; *.A.f.0.7.5.5.5.0.0.0.0.0.0.0.0.0.0.0.3.e.7.5.r.2.,.H.C.x./ : . + ,                                 ",
"    O O .   . .   O O   . p n.d.e.0.0.5.5.0.0.0.0.0.0.0.0.0.0.0.0.5.r.;.5.g.,.Q.6X .r . . .       X           X                 ",
"    O O . . .     @ , O $ l -.g.9.0.0.0.0.0.0.5.0.0.0.0.0.0.0.0.5.0.2.g.e.<.W.&.p % . +               X X                       ",
"    O O           O , + . M B.9.0.0.0.0.0.0.0.0.0.0.0.0.0.0.0.0.f.6.4.r.P.z.D & . . . .             X # X                       ",
"    O O             ,   . S A.q.0.0.0.0.0.0.0.0.0.0.0.0.0.0.0.0.f.y.P.V.^ r . . . .         X       X # X                       ",
"    O O             O + . M I.9.0.0.0.0.0.0.0.0.0.0.0.0.0.0.0.0.9.P.[ p $ . $ o o   X # O O         X #                         ",
"    O O         X   O . . M Y.6.0.0.0.0.0.0.0.0.0.0.0.0.0.0.0.0.q.$.h $ $ * . .                       #                         ",
"    O O               . . h n.p.0.0.0.0.0.0.0.0.0.0.0.0.0.0.0.0.r.f.m._ 8 . $ % o         X X         X                         ",
"    O O             X . . t c.L.e.0.0.0.0.0.0.0.0.0.0.0.0.0.0.0.2.k.a.C.#XD o . .   X X     X         X                         ",
"    O O             X   . 7 O.T.f.0.0.0.0.0.0.0.0.0.0.0.0.0.0.0.r.3.r.g.<.D.l.z - .           @                                 ",
"    O O             X   . o | &Xa.0.0.0.5.7.7.0.0.0.0.0.0.0.0.0.5.5.0.0.q.r.t.Y.X.d . . . X O O                                 ",
"                    o     X g yXC.e.5.5.e.7.3.e.0.0.0.9.0.0.0.0.0.0.0.0.9.9.w.d.L.T.^ 0 .                                       ",
"                    X       q /.<X6.0.0.3.3.e.7.0.0.9.9.9.0.0.0.0.0.0.9.9.9.0.0.5.8.!.v.D 9 X X                                 ",
"                            X x #Xy.r.q.5.5.5.5.7.0.0.0.e.e.7.7.0.0.f.f.9.0.0.0.5.7.f.H.I.{ k X                                 ",
"                        X     9 O.I.j.4.q.0.3.0.7.7.0.0.0.7.7.7.0.0.u.u.e.0.0.0.5.7.2.r.w.!.pXs                                 ",
"                        X     o l *.T.s.0.0.2.r.7.7.0.0.0.0.5.5.0.0.u.u.0.0.0.5.:.J.5.5.6.A.$XU .                               ",
"                              X % S .X>Xd.4.0.5.7.7.0.0.0.0.5.5.0.0.u.u.0.0.0.5.f.:.7.f.i.U.X.8 .                               ",
"                                . 9 Q b.K.f.r.4.7.7.0.0.0.0.5.5.5.7.7.7.7.0.0.0.7.7.j.D.-X+.p . .                               ",
"                  O   O         . . 9 ) oXK.<.r.e.0.0.0.5.5.7.7.5.7.7.7.7.0.0.0.7.a.S.&X+.p . .                                 ",
"                                  . . 9 F b.E.<.0.0.0.0.5.3.j.3.0.0.q.0.5.0.4.w.<.!.*X .t . . .                                 ",
"                                1 O   . - f [ T.p.e.5.e.u.u.u.e.0.4.5.0.7.e.u.L.<X#.Z q X   O O                                 ",
"                                      @ O . r D %.G.i.a.H.J.4.q.9.r.f.6.a.F.m.l.) f o     O 2 2                                 ",
"                                      , i , . o E x.U.$.x.U.B.K.K.S.t.S.m.' G s %     @ @ O 2 ,                                 ",
"                                        , O . o C M.%Xj n J K ) } G ( &X@Xd % . .   O                                           ",
"                                      X @   . o A <X5X& $ . o . % & m 1X$X0 . . < 2 O       X                                   ",
"                                ,         O   . Z 2XfX; $ . .     o Z ;X*Xq . + O O         . .                                 ",
"                                O O X       . . A 3XuX6 . +     , . k ^.7X0 . O         O O . .                                 ",
"                                        * . + . F 1X3X7 . ,     # . V %X3Xq . 1       . O , .                                   ",
"                                    X   . . . $ C 3X0X: . O X   . . V =XuX0 .         . O O                                     ",
"                                    X       . % A wX;X: % .   X   . C %X1X0 -           .                                       ",
"                                          X . . Z ;X^.> o .     . . z %X&X9 X                                                   ",
"                                @ O         . % A wX*Xu . O 3 O @ . Z =X4Xy   @ O O     O O                                     ",
"                                    O       . c @.qXqX .7 O , O   c @.7X0Xo.9 O , , O O O O                                     ",
"                                            o Y zXqX9XdXw + O < . Y sX>X9XkXu   , , O                                           ",
"                                            . P gX7X7XhX% . + . . B 2X>X9XhX; X   O O                                           ",
"                                  1 O 1 O . . T kX0X7XhX6 . . . . b jX,X8XfX0 .   1 O O , ,   @                                 ",
"                                O < O O   . . ~ gXaXaXiXt $ % . % P iX,X8XiXf o o   . + < < O                                   ",
"                                    . . . . % `.hX%X<XaXuXyXo.s X (.lXaX,XaXuXyX).b o . .   #                                   ",
"                                O   . . . . % [.kXsXaXsXgXbXvXcXo '.bXjX5XsXlXxXbXyX. % *   .                                   ",
"                                O O     .   . R [.}._.OXtXtX|.].X R {.tX_.}.eXrX X Xo o + O O                                   ",
"                                O O       X   : o % . o % o o =   X o $ $ 6 % = X X     , , #                                   ",
"                                                . . . . o         X o $ . . . X X   4 , 2 O                                     ",
"                                X     X     3 O   O < , 3 O @         < < 5       X , 2 2 <                                     "
};
