/* XPM */
static char *_e2fb8d36087417487966605855a49c541RNDEBaBbeUJh3o[] = {
/* columns rows colors chars-per-pixel */
"64 64 146 2 ",
"   c black",
".  c #010000",
"X  c #000100",
"o  c #010100",
"O  c #030000",
"+  c #030100",
"@  c #000200",
"#  c #010200",
"$  c #010300",
"%  c #030200",
"&  c #020300",
"*  c #000002",
"=  c #010002",
"-  c #000102",
";  c #060100",
":  c #040200",
">  c #040300",
",  c #050300",
"<  c #060200",
"1  c #010400",
"2  c #030400",
"3  c #030500",
"4  c #030600",
"5  c #040500",
"6  c #060400",
"7  c #060500",
"8  c #070500",
"9  c #070600",
"0  c #000004",
"q  c #000104",
"w  c #000005",
"e  c #010005",
"r  c #010204",
"t  c #000007",
"y  c #010007",
"u  c #080400",
"i  c #080500",
"p  c #090600",
"a  c #0A0600",
"s  c #0B0700",
"d  c #060800",
"f  c #0A0900",
"g  c #0E0900",
"h  c #0D0B00",
"j  c #0C0C00",
"k  c #0E0D00",
"l  c #000009",
"z  c #00000B",
"x  c #00000C",
"c  c #100B00",
"v  c #110B00",
"b  c #110C00",
"n  c #130D00",
"m  c #130E00",
"M  c #140F00",
"N  c #141000",
"B  c #181400",
"V  c #1B1700",
"C  c #1F1B00",
"Z  c #231F00",
"A  c #363300",
"S  c #393600",
"D  c #817D33",
"F  c #807C35",
"G  c #817D36",
"H  c #F5EA1E",
"J  c #F5EA1F",
"K  c #F6EB20",
"L  c #FFF529",
"P  c #FFF52A",
"I  c #FFFF2D",
"U  c #FFFF2E",
"Y  c #FFFF2F",
"T  c #F7ED36",
"R  c #F7EC38",
"E  c #FFFD32",
"W  c #9D9A4D",
"Q  c #9E9B4E",
"!  c #9E9A50",
"~  c #F5EA40",
"^  c #FAEF45",
"/  c #FAF041",
"(  c #FFFF40",
")  c #FFFF41",
"_  c #FFFF42",
"`  c #FFFF44",
"'  c #FFFB4C",
"]  c #FFFB4E",
"[  c #FFFF4D",
"{  c #FFFC4F",
"}  c #F0E855",
"|  c #F6EE5F",
" . c #FAF156",
".. c #FFFB51",
"X. c #FFFF51",
"o. c #FFFF52",
"O. c #FFFF54",
"+. c #FAF158",
"@. c #FCF358",
"#. c #FCF35A",
"$. c #F9F15E",
"%. c #FCF25C",
"&. c #FEF55C",
"*. c #E1DC76",
"=. c #E1DC78",
"-. c #E3DE7A",
";. c #EFE66D",
":. c #F9F162",
">. c #F9F26E",
",. c #FFFF68",
"<. c #FFFF6E",
"1. c #EEE570",
"2. c #EFE979",
"3. c #EFE97B",
"4. c #F1E871",
"5. c #F1E873",
"6. c #F4EB72",
"7. c #F2EC7E",
"8. c #FEF773",
"9. c #FFFF7C",
"0. c #FFFF7E",
"q. c #D9D281",
"w. c #D9D282",
"e. c #DDD884",
"r. c #DFDB84",
"t. c #DFDA86",
"y. c #E0D989",
"u. c #E3DF88",
"i. c #EEE981",
"p. c #E8E48D",
"a. c #EDE78F",
"s. c #F4EF87",
"d. c #F4EF89",
"f. c #FFFF81",
"g. c #FFF884",
"h. c #FFF985",
"j. c #F3EE93",
"k. c #F4EE9A",
"l. c #FFFF93",
"z. c #FFFF97",
"x. c #F7F19B",
"c. c #F7F19D",
"v. c #F8F29E",
"b. c #FFFF9A",
"n. c #F8F1A0",
"m. c #FBF5A1",
/* pixels */
"                                                                                                                                ",
"                                                                                                                                ",
"                                                                                                                                ",
"                                                                                                                                ",
"                                                                                                                                ",
"                                                                                                                                ",
"                                                                                                                                ",
"                                                                                                                                ",
"                                                                                                                                ",
"                                                                                                                                ",
"                                                                                                                                ",
"                                                                                                                                ",
"                                                                                                                                ",
"                                                                                                                                ",
"                                                                                                                                ",
"                                                                                                                                ",
"                                                                                                                                ",
"                                                                                0 0                                             ",
"                                                                            0 0                                                 ",
"                                                  0 0 0 0 0 0 0 0 0 0 0 0 0 0 0                                                 ",
"                                            0 0 0 0 0 0 0 0 l l 0 0 0 0 0 0 0 0                                                 ",
"                                            0 0 0 0 0 0 0 0 l 0 0 0 0 0 0 0 0 0                                                 ",
"                                        0 0 0 0 0 0 0 0 0 0 0 0         0 0                                                     ",
"                                        0 0 0 0 0                                                                               ",
"                                        0 0 0 0 0       8 8 > u u > 8 8     2                                                   ",
"                                      0 0 0 0       d j 8 u u c c u u 8 j d         0                                           ",
"                                      0 0 0 0   2   j 8 V ! n.a.a.v.W V 8 j   2   0 0 0                                         ",
"                                      0 0 0 0     > 8 A p.d.h.;.;.h.s.p.A 8 >     0 0 0                                         ",
"                                      0 0 0 0     8 Z r.2.>.} <.<.} >.2.r.Z 8     0 l 0 0                                       ",
"                                      0 0 0 0   > N D *.9. .' T T ' +.9.-.F M >   0 l l 0                                       ",
"                                      0 l l 0   > u q.l.$./ ( L L ( ^ :.z.q.u >   0 l l 0                                       ",
"                                      0 l l 0   > b x.4.@.[ H I I H o.%.4.v.c >   0 x l 0                                       ",
"                                      0 l l l   u b k.1.@.o.K I I K O.%.1.k.b u   0 x l 0                                       ",
"                                      0 l l 0   > u y.b.| ~ ` E E ( ~ | b.y.u >   0 l l 0                                       ",
"                                      0 l l 0   > b F -.f.&...R R [ &.f.-.F b >   0 l l 0                                       ",
"                                      0 0 l 0   8 8 Z r.7.8.} ,.,.} 8.7.r.C 8 8   0 l 0 0                                       ",
"                                        0 l 0     > h S u.i.h.6.6.h.i.u.S h >     0 0 0                                         ",
"                                        0 0 0   8   j 8 V W m.j.j.m.W V 8 j   8   0 0 0                                         ",
"                                          0     2     f 8 u u h h u u 8 f     2     0                                           ",
"                                                  2 d   8 > > u u > > 8   d 2                                                   ",
"                                                                                                                                ",
"                                                    0 0                 0 0                                                     ",
"                                                0 0 0 0 0 0 0 0 l l 0 0 0 0 0 0                                                 ",
"                                                0 0 0 l l 0 0 0 l l 0 0 0 0 0 0                                                 ",
"                                                0 0 0 0 0 0 0 0 0 0 0 0 0 0 0 0                                                 ",
"                                                0 0                         0 0                                                 ",
"                                            0 0                                 0 0                                             ",
"                                                                                                                                ",
"                                                                                                                                ",
"                                                                                                                                ",
"                                                                                                                                ",
"                                                                                                                                ",
"                                                                                                                                ",
"                                                                                                                                ",
"                                                                                                                                ",
"                                                                                                                                ",
"                                                                                                                                ",
"                                                                                                                                ",
"                                                                                                                                ",
"                                                                                                                                ",
"                                                                                                                                ",
"                                                                                                                                ",
"                                                                                                                                ",
"                                                                                                                                "
};
