/* XPM */
static char *a0d954fb1e964c428e00bf06e548b582HSVFYu4b0BqInm3B[] = {
/* columns rows colors chars-per-pixel */
"40 40 181 2 ",
"   c #010203",
".  c #01030B",
"X  c #000114",
"o  c #040A16",
"O  c #00011C",
"+  c #090C1B",
"@  c #000125",
"#  c #00012D",
"$  c #000134",
"%  c #040931",
"&  c #00013A",
"*  c #020B3C",
"=  c #000146",
"-  c #010B40",
";  c #00044C",
":  c #000B48",
">  c #09124B",
",  c #11184F",
"<  c #000655",
"1  c #000B57",
"2  c #0A0D50",
"3  c #00055B",
"4  c #000C5E",
"5  c #001055",
"6  c #0A1556",
"7  c #05165D",
"8  c #0A145C",
"9  c #06185E",
"0  c #141A55",
"q  c #161E5D",
"w  c #1E235B",
"e  c #000765",
"r  c #000A62",
"t  c #010D6B",
"y  c #061463",
"u  c #091363",
"i  c #051867",
"p  c #04136C",
"a  c #09136C",
"s  c #0E1969",
"d  c #131B65",
"f  c #1A1F61",
"g  c #000374",
"h  c #010E74",
"j  c #010E79",
"k  c #041372",
"l  c #0A1273",
"z  c #0A1E74",
"x  c #03127A",
"c  c #021A7C",
"v  c #0C1B7F",
"b  c #141F71",
"n  c #1E2967",
"m  c #15226B",
"M  c #19206E",
"N  c #1C2470",
"B  c #1C2977",
"V  c #12237B",
"C  c #1D247E",
"Z  c #1B297A",
"A  c #132474",
"S  c #272B74",
"D  c #222778",
"F  c #252B7F",
"G  c #000F80",
"H  c #011087",
"J  c #071C83",
"K  c #0A1B84",
"L  c #061288",
"P  c #041889",
"I  c #0A1A8C",
"U  c #111E84",
"Y  c #121E8B",
"T  c #091792",
"R  c #0B1992",
"E  c #111E92",
"W  c #0E208C",
"Q  c #122286",
"!  c #1A2784",
"~  c #1A2987",
"^  c #14238A",
"/  c #1C268F",
"(  c #1B298A",
")  c #1C308E",
"_  c #112393",
"`  c #1C2491",
"'  c #172D92",
"]  c #1C2A91",
"[  c #16239A",
"{  c #212D81",
"}  c #242E8D",
"|  c #21318C",
" . c #2A338D",
".. c #243585",
"X. c #31398C",
"o. c #212D93",
"O. c #2F3691",
"+. c #2B3995",
"@. c #333C95",
"#. c #323D9D",
"$. c #141EA1",
"%. c #1320A3",
"&. c #1823A1",
"*. c #1828A1",
"=. c #232FA5",
"-. c #202EAD",
";. c #2230A3",
":. c #2936AB",
">. c #222DB0",
",. c #2A35B1",
"<. c #2F479F",
"1. c #3345A4",
"2. c #3344AD",
"3. c #3B48AE",
"4. c #3243B1",
"5. c #3D4CB3",
"6. c #444EA7",
"7. c #464DA8",
"8. c #4C53AE",
"9. c #4E54B2",
"0. c #4452BD",
"q. c #535CB9",
"w. c #4D5BCA",
"e. c #4B5CC4",
"r. c #595EC2",
"t. c #525BDC",
"y. c #4D60C7",
"u. c #5361C4",
"i. c #5A67C5",
"p. c #5769CD",
"a. c #5A6ACD",
"s. c #5B70CD",
"d. c #5A67D2",
"f. c #5C6AD2",
"g. c #5662D8",
"h. c #5C6CDE",
"j. c #6068CA",
"k. c #6973D5",
"l. c #6672D8",
"z. c #6C78DA",
"x. c #727CDC",
"c. c #606DE5",
"v. c #7683E1",
"b. c #7688EE",
"n. c #7889EA",
"m. c #7C83ED",
"M. c #7D90EF",
"N. c #7B88F0",
"B. c #7783F9",
"V. c #7884FC",
"C. c #8697EA",
"Z. c #8899EC",
"A. c #808BFF",
"S. c #8793F5",
"D. c #8993F5",
"F. c #8792FC",
"G. c #8C95FF",
"H. c #8A9AFE",
"J. c #939CFF",
"K. c #95A4FF",
"L. c #9AA2FF",
"P. c #9AA4FF",
"I. c #9DA5FF",
"U. c #9BAAFF",
"Y. c #9DA9FF",
"T. c #9BADFF",
"R. c #9EAFFF",
"E. c #9FABFF",
"W. c #9FB0FF",
"Q. c #9FB3FF",
"!. c #A3ADFF",
"~. c #A1B2FF",
"^. c #A2B3FF",
"/. c #A2B1FF",
"(. c #A4B1FF",
"). c #A0B5FF",
"_. c #A4B4FF",
"`. c #A3B2FF",
"'. c #A9B1FF",
"]. c #AFBCFF",
"[. c #ADBEFF",
/* pixels */
"    O # = 3 < t t t h h h k p p x x j j j j j j j j j j j j j h p 5 : $ @ O o   ",
"    O $ 1 a +.) 1.1.2.2.2.1.1.<.2.2.2.2.2.2.2.2.2.2.2.2.2.2.2.2.| ..m 6 - @ X o ",
"  . % q { +.n.K._._.(.(././.).).W.R.W.W./././././././././././././.K.k.@.d 0 @ O ",
"X O w M i.U.T.n.a.a.d.d.d.f.p.a.p.p.p.p.p.p.p.p.p.p.p.p.p.p.p.d.B.A.!.G.7.d > # ",
"@ $ S 8.P.U.e.Q ( ( / ` ` / ~ ~ ~ ~ ~ ~ ~ ~ ~ ~ ~ ~ ~ ~ ~ ~ ~ / [ &.c.U.J.O.M = ",
"& 2 @.P.K.:.h v k k h j j j k p k a a a a p p p a a a p a a a k Y L E w.'.x. .3 ",
"= D r.P.g.E x k p p l l l l k a a a a a a a a a a a a a a a a a e x v ] N.P.#.t ",
"< C m.P.:.R h p y y a a l l a p y y y y p i i i p p y y y y y i A 4 p V u.[.3.U ",
"3 ! F.G.;.I k i y 7 u u a a u y u u u u u u u u y y u u u u u y 7 9 y V 1./.f.K ",
"3 ! F.H.;.K p i 7 8 8 u u u u y u u u u u u u u y y u u u u u y 7 9 y V 1./.f.I ",
"3 ! F.H.;.K p i 8 6 8 u u u y y u u u u u u u u y y y u u u u y 7 y i V 2./.h.I ",
"< ! F.H.;.K p i 8 6 8 8 u u 7 7 y u u u u u u u y y u u u u u y y i a Q 2./.h.I ",
"< Z S.H.;.K p i 8 8 8 u u y 7 7 y y y y y y y y y y y y y y y y p a k ^ 4.(.h.I ",
"< Z S.H.;.K p i 8 8 u u u y y 7 y y y y y y y y y y y y y y y y p a k Y 4.(.h.I ",
"; Z D.H.;.I h a u 8 u u u u y y y y y y y y y y y y y y y y y y y a k Q 2.(.h.I ",
"; Z S.H.=.I h a u u u u u u y y y y y y y y y y y y y y y y y y u a a Q 2.(.h.I ",
"< Z Z.H.-.R p y u u u u u u u u y u u u u u u u u u u u u u u u u a a Q 2./.h.I ",
"< Z Z.H.-.R p 7 u u u u u u u u u u u u u u u u u u u u u u u u u u k Q 4./.h.I ",
"< Z Z.H.-.R p 7 u u u u u u u u u u u u u u u u u u u u u u u u u u k Q 4.W.h.I ",
"< Z Z.H.-.R p 7 u u u u u u u y u u u u u u u u u u u u u u u u u u k Q 4.W.h.I ",
"< Z Z.H.-.R p 7 u u u u u u u y u u u u u u u u u u u u u u u u u u k Q 4.W.h.I ",
"< Z Z.H.-.R p 7 u u u u u u u y u u u u u u u u u u u u u u u u u u k Q 4.W.h.I ",
"< Z Z.H.-.R p 7 u u u u u u u u u u u u u u u u u u u u u u u u u u k Q 4.W.h.I ",
"< Z Z.H.-.R p 7 u u u u u u u u u u u u u u u u u u u u u u u u u u k Q 4.W.h.I ",
"< Z C.H.-.R p 9 u u u u u u u u u u u u u u u u u u u u u u u u u u k Q 4.W.h.I ",
"< Z C.H.-.R p 9 u u u u u u u u u u u u u u u u u u u u u u u u u u k Q 4./.h.I ",
"< Z C.H.-.R p 9 u u u u u u u u u u u u u u u u u u u u u u u u u u k Q 4./.h.I ",
"< Z C.H.-.R p 9 u u u u u u u u u u u u u u u u u u u u u u u u u u k Q 4./.h.I ",
"< Z C.H.-.R p 9 u u u u u u u y u u u u u u u u u u u u u u u u u u k Q 4.W.h.I ",
"< Z C.H.-.R p 9 u u u u u u u y u u u u u u u u u u u u u u u u u u k Q 4.W.h.I ",
"< Z C.H.-.R p 9 u u u u u u u y u u u u u u u u u u u u u u u u u u k Q 4.W.h.I ",
"< B C.H.>.T p i y u u u a u u u u u u u u u u u u u u u u u u u y i k Q 4./.h.I ",
": m x.!.>.%.G k p p p k k a y y y y p p p p a a a p p p p p p i z r k K y.[.5.U ",
"$ n q.!.t.$.H J k k k k k l a a a a a a a a a a a a a a a a a k e c J ] b.K.#.t ",
"# > X.I.J.,.g ^ k k k x x k a a l k k k k k k a k k k k k k k k W P _ w.(.z. .< ",
"@ * N 9.P.U.0.] ) ( ( ( ( ( ( ( ( ( ( ( ( ~ ( ~ ( ~ ( ~ ( ~ ( ] [ *.c.!.H. .M = ",
"X @ 0 N j.!.K.M.s.s.a.p.f.a.a.a.p.f.f.f.f.f.f.f.f.f.f.f.f.f.f.f.V.A.!.H.6.d > $ ",
". X # f F @.v.K.).).)././././././.!./././.(.(.(.(.(././././././.!.J.l.@.d , @ @ ",
". X O $ ; s O.| 1.1.2.2.2.2.2.2.2.2.2.2.2.2.2.2.2.2.2.2.2.2.2.2.o.} b 8 * @ X + ",
"    O # $ < ; t t t h h x x h h x x j j j j h h j j j j j j j h k r ; & @ X o   "
};
