/* XPM */
static char *e5177d75297848f9ec1c023bf8cbffb9mTQPofjUjAdqDPYa[] = {
/* columns rows colors chars-per-pixel */
"40 40 169 2 ",
"   c #010101",
".  c #0A0300",
"X  c #040B02",
"o  c #0D0901",
"O  c #01000B",
"+  c #0C0109",
"@  c #070A09",
"#  c #0C0B0A",
"$  c #120300",
"%  c #120B00",
"&  c #1A0D02",
"*  c #0A1200",
"=  c #141300",
"-  c #1C1400",
";  c #1F1800",
":  c #010012",
">  c #090614",
",  c #0D0E15",
"<  c #03031A",
"1  c #121011",
"2  c #201600",
"3  c #241C00",
"4  c #2C1C00",
"5  c #351C00",
"6  c #242200",
"7  c #302600",
"8  c #322C00",
"9  c #3B3500",
"0  c #453B00",
"q  c #4D3A00",
"w  c #563B00",
"e  c #474300",
"r  c #4B4502",
"t  c #5A4100",
"y  c #534A00",
"u  c #5A5500",
"i  c #565800",
"p  c #5E5900",
"a  c #565208",
"s  c #5A5A1C",
"d  c #545414",
"f  c #616100",
"g  c #6E6A00",
"h  c #6D610F",
"j  c #7B7400",
"k  c #686018",
"l  c #767616",
"z  c #857E0A",
"x  c #857927",
"c  c #927F32",
"v  c #8A8600",
"b  c #88860F",
"n  c #9A8F1B",
"m  c #B19F00",
"M  c #A29F10",
"N  c #ADA000",
"B  c #B8B60C",
"V  c #A29827",
"C  c #ADA924",
"Z  c #B4B22B",
"A  c #ACAB34",
"S  c #B5AB3A",
"D  c #C5BB3E",
"F  c #DDD500",
"G  c #FFDF00",
"H  c #ECE402",
"J  c #EDEA02",
"K  c #EFEE0A",
"L  c #F5E302",
"P  c #F4EC01",
"I  c #FDED02",
"U  c #F4EE09",
"Y  c #FDED0B",
"T  c #ECF100",
"R  c #F4F003",
"E  c #FEF302",
"W  c #FFF903",
"Q  c #FEF30A",
"!  c #F7FA0D",
"~  c #FEFB0C",
"^  c #E7E111",
"/  c #EFE813",
"(  c #E3E31F",
")  c #EBE41E",
"_  c #EFEA1E",
"`  c #F2EC14",
"'  c #FCED14",
"]  c #F6E31A",
"[  c #FBE01F",
"{  c #F3ED1A",
"}  c #FCEC1D",
"|  c #F4F516",
" . c #FFF511",
".. c #FFFC13",
"X. c #F3F21D",
"o. c #F9F21D",
"O. c #FEFB1A",
"+. c #CCD12F",
"@. c #CBCA3A",
"#. c #DDDA37",
"$. c #DBD43A",
"%. c #DCDC3C",
"&. c #E7DD3E",
"*. c #E6E322",
"=. c #EEEA21",
"-. c #E8E429",
";. c #FAE321",
":. c #F2E925",
">. c #FFEC23",
",. c #F6EB2A",
"<. c #FFED2E",
"1. c #FBE32B",
"2. c #F5F025",
"3. c #FDF323",
"4. c #FCFA26",
"5. c #F7F32B",
"6. c #FBF52A",
"7. c #FFFF28",
"8. c #E6E431",
"9. c #EFEA34",
"0. c #EFEE3E",
"q. c #FFE536",
"w. c #F9EE3A",
"e. c #F1F135",
"r. c #FFF435",
"t. c #F6F835",
"y. c #F4F33A",
"u. c #FBF63A",
"i. c #B5AF43",
"p. c #BCB040",
"a. c #BBB442",
"s. c #C4B455",
"d. c #CAC746",
"f. c #CFC643",
"g. c #CDCE4C",
"h. c #C4C44C",
"j. c #D0CA40",
"k. c #D1CE41",
"l. c #D8CC44",
"z. c #D6D346",
"x. c #D9D84C",
"c. c #D8D95A",
"v. c #DBDC52",
"b. c #E2DD41",
"n. c #E2DD4D",
"m. c #E5DB55",
"M. c #E2D852",
"N. c #E9DD54",
"B. c #E4D659",
"V. c #E6DF5A",
"C. c #E6E442",
"Z. c #ECE646",
"A. c #EDE846",
"S. c #EAE34C",
"D. c #ECE74D",
"F. c #ECE24F",
"G. c #F1EA44",
"H. c #F6F346",
"J. c #FFF646",
"K. c #FFF945",
"L. c #F9F449",
"P. c #FAFD4C",
"I. c #EFE457",
"U. c #EEE353",
"Y. c #F8F254",
"T. c #D6CE63",
"R. c #DAD464",
"E. c #E2DE61",
"W. c #E8DC66",
/* pixels */
": O O                                   O : O O                                 ",
": O                                   O O O O O                                 ",
"O             O O : O O         O : : : O O           O O                       ",
"            O O : : O O         O : : : O             O O O                     ",
"            O : : : O O                                   O O O O               ",
"            O O O O         O O                             O O O               ",
"      O O O O             O O O O           O : : O           O                 ",
"    O O : O               O           . o     . : O                             ",
"    O : : O               o   o . 3 e y u 9 ; . . + O > O   X                   ",
"    : : : O         # . . . 6 p p.B.I.S.Z.D.j.i.k . . . , @                     ",
"    O O O O       . . . & y k.8.) 3.3.3./ 4.X.( %.A 8 o   O                     ",
"    O O         .   . - h M.u.O.W P I Q Y U W ! X.P.h.r o     @                 ",
"                  o . x N.K.H P W W ' ] r.m N ~ J | y.v.e o   .                 ",
"            O O   % y m.w.' ~ W P ~ ' ;.q.5 4 Y ..J | e.d.- &                   ",
"          O O   o o z.u.F ..L I I E  .3.1.w t >.Q J ~ ` L.V $ $                 ",
"          O O   o g 8.J ~ E E I ~ P Q ' >.[ <.} Y ~  ._ C.i.. .                 ",
"          O O   $ D _ E W I E E ~ I I ~ I I I Y  .` y.@.i .   O O               ",
".     O O O O . 4 l.} W W I E I L ~ E I W W I ' ,.&.j o   *   O                 ",
".   O O O     . 0 N.6.E E I E I Y  .I I W E { L.n 7 . %                         ",
"    O O O     . y U.3.I I I ~ I Q L E W P X.B 9 o . . : O   X                   ",
"    O O O     . r S.3.I E I Q I I  .I ' ,.v - o o   O > O     .                 ",
"  O O O       . 9 n.o.E W I Q I I I ~ ' :.#.b = . .   O 1 X   .                 ",
"O O O       O . 2 f.{ E W I Y Y E E E I R 7.t.+.f =   o     =                   ",
"O O         : . . a.) E W I Q I I E I E W P J 4.H.C e o o o   .                 ",
"O O         O O . y 0.K E W I ~ E E E E E I I E Y 6.9.M 6 . o O                 ",
"O O         O O & o Z y.` ..E L W E I I Y I I Q I I U e.c.s   < O               ",
"O O               % 8 E.A.) ~ ~ P ~ ~ E I Q I G I W ..*.g.d O < O               ",
"  O O               . a R.Y.^ P ! ! E I I I Y I I L :.b.6 . O < O               ",
"    O .           #   o r T.G.4.! T R ....Q E ..3.J.D 3 %   #                   ",
"    O O . .     O O #   o 8 S $.9.5.5.=.=.2.2.-.$.z ; .   #                     ",
"    O O . . . O ,         . $ q c s.W.V.n.x.A l - %                             ",
"    O O O . O O O X     .   % . $ $ & 3 3 = . . o   O O                         ",
"      O O   O O                                                                 ",
"                                                                                ",
"                                                                                ",
"                                                                                ",
"                                                                                ",
"                                                                                ",
"                                                                                ",
"                                                                                "
};
