/* XPM */
static char *pacman[]={
"46 22 2 1",
". c #000000",
"# c #ffff00",

"..............................................",
"..............................................",
"..............................................",
"..................############................",
"...............################...............",
".............#########..##########............",
"............#########..###########............",
"...........####################...............",
"..........#################...................",
".........##############.......................",
".........############.........................",
".........##############.......................",
".........#################....................",
"..........#####################...............",
"...........######################.............",
".............####################.............",
"...............################...............",
".................##########...................",
"..............................................",
"..............................................",
"..............................................",
".............................................."};