/* XPM */
static char * pac_open_right_xpm[] = {
"32 32 3 1",
" 	c #000000",
".	c #FFF100",
"+  c #B5AE35",
"                                ",
"                                ",
"                                ",
"            ++++++++++          ",
"            +.........+         ",
"        +++++..........+        ",
"        +...............+       ",
"       ++.....  .........+      ",
"       +......  .......++       ",
"       +.............++         ",
"     +++..........+++           ",
"    ++............++            ",
"    +............++             ",
"    +...........++              ",
"    +..........++               ",
"    +..........+                ",
"    +........+++                ",
"    +..........+                ",
"    +..........++               ",
"    +...........++              ",
"    ++...........++             ",
"     +++..........++            ",
"       +..........+++           ",
"       +.............++         ",
"       ++..............++       ",
"        +................+      ",
"        ++++...........+        ",
"           ++.........+         ",
"            +++++++++           ",
"                                ",
"                                ",
"                                "};
