/* XPM */
static char *_b4904b3994c40e5e289c9ba34cde2a48KjEPOMkMZIo7h2C[] = {
/* columns rows colors chars-per-pixel */
"40 40 195 2 ",
"   c #010101",
".  c #0B0201",
"X  c #020A01",
"o  c #0C0902",
"O  c #02010B",
"+  c #09040A",
"@  c #04090B",
"#  c #0A0C0B",
"$  c #120300",
"%  c #1D0300",
"&  c #130B00",
"*  c #190B00",
"=  c #100A0A",
"-  c #03110A",
";  c #141200",
":  c #1B1300",
">  c #1E1A00",
",  c #020113",
"<  c #0D0312",
"1  c #000A10",
"2  c #0B0914",
"3  c #02011A",
"4  c #0B021A",
"5  c #021118",
"6  c #230200",
"7  c #221700",
"8  c #251800",
"9  c #2D1A00",
"0  c #2C1400",
"q  c #252201",
"w  c #2C2300",
"e  c #302700",
"r  c #322E00",
"t  c #3D2D00",
"y  c #343100",
"u  c #3C3500",
"i  c #3C3B00",
"p  c #2B2D1F",
"a  c #303224",
"s  c #402000",
"d  c #432C00",
"f  c #423400",
"g  c #463B00",
"h  c #503300",
"j  c #553F00",
"k  c #4A4100",
"l  c #514300",
"z  c #534A01",
"x  c #5A4D00",
"c  c #564D0A",
"v  c #5D5500",
"b  c #5B5900",
"n  c #45461E",
"m  c #634F00",
"M  c #655504",
"N  c #645C01",
"B  c #695B00",
"V  c #635A0A",
"C  c #5F6200",
"Z  c #6F6500",
"A  c #706509",
"S  c #7B7308",
"D  c #6D6524",
"F  c #67693A",
"G  c #877E00",
"H  c #817A08",
"J  c #8A7A00",
"K  c #8E8305",
"L  c #998C00",
"P  c #A49C1F",
"I  c #9EA019",
"U  c #BCAC0E",
"Y  c #B9B70D",
"T  c #B8A919",
"R  c #958C26",
"E  c #9F992B",
"W  c #898835",
"Q  c #A19726",
"!  c #A6952D",
"~  c #A99937",
"^  c #BBB727",
"/  c #A7A131",
"(  c #AEA834",
")  c #BAAF39",
"_  c #B3AD36",
"`  c #B6B03E",
"'  c #BEB532",
"]  c #C2B100",
"[  c #C3AF1A",
"{  c #C7BF2E",
"}  c #C1B32C",
"|  c #C7BE33",
" . c #C4B63B",
".. c #DCD002",
"X. c #DFD514",
"o. c #C4C418",
"O. c #E1D602",
"+. c #EDE304",
"@. c #ECE901",
"#. c #F3E401",
"$. c #FAE501",
"%. c #F5EB01",
"&. c #FDED03",
"*. c #F5EC0B",
"=. c #FEEE0B",
"-. c #EEF106",
";. c #F5F302",
":. c #FEF201",
">. c #FEFB04",
",. c #FEF30C",
"<. c #FFFB0B",
"1. c #EDE415",
"2. c #EAEA1E",
"3. c #F2E515",
"4. c #F1E912",
"5. c #FFED13",
"6. c #F6E51C",
"7. c #F4EC1C",
"8. c #FCED1A",
"9. c #FAE41F",
"0. c #F6F216",
"q. c #FDF212",
"w. c #FFFB14",
"e. c #F6F21C",
"r. c #FBF31C",
"t. c #FFFB1D",
"y. c #C4C92E",
"u. c #DCCC21",
"i. c #D8D120",
"p. c #CDC53E",
"a. c #DEC739",
"s. c #D9CF3A",
"d. c #E8D02E",
"f. c #EBDE2F",
"g. c #EBDB32",
"h. c #EBDD39",
"j. c #EBE92C",
"k. c #ECE927",
"l. c #F4EC22",
"z. c #FBED24",
"x. c #F1E42C",
"c. c #F3ED2B",
"v. c #FAEC29",
"b. c #F9E427",
"n. c #EFF320",
"m. c #F6F222",
"M. c #FCF225",
"N. c #FFFA24",
"B. c #FFFD22",
"V. c #F7F129",
"C. c #FDF32A",
"Z. c #FFFD29",
"A. c #EDEA3E",
"S. c #E9E536",
"D. c #FCEA31",
"F. c #F5EF3F",
"G. c #F7E935",
"H. c #FFFE30",
"J. c #F0F738",
"K. c #FCF23C",
"L. c #FFFB3C",
"P. c #F5F136",
"I. c #9E9643",
"U. c #8D8B50",
"Y. c #949255",
"T. c #CBBF47",
"R. c #CFBB4A",
"E. c #CCC64C",
"W. c #C5C146",
"Q. c #D4C848",
"!. c #DDD441",
"~. c #DFD04F",
"^. c #CFC959",
"/. c #DFD853",
"(. c #D7D252",
"). c #E5DC4B",
"_. c #E9DE4A",
"`. c #E5DB45",
"'. c #F2DD46",
"]. c #E7DA50",
"[. c #EBDE51",
"{. c #EBE543",
"}. c #EEEA40",
"|. c #ECE64C",
" X c #F0E742",
".X c #F0E74C",
"XX c #F5ED47",
"oX c #F7F047",
"OX c #FFF546",
"+X c #F6F149",
"@X c #FCF349",
"#X c #EDE650",
"$X c #F8ED53",
"%X c #D7D580",
"&X c #EFED98",
/* pixels */
"3 , O       O , , O   X X     @ O O X X X X     X     . O O   X                 ",
", O         O O O O           O , O         @     X   O , O                     ",
"                #         O O , 3 ,       O O       O O 3 ,   X                 ",
"                    o       + . $ $ . .   . .         O , 3                     ",
"                      . . . . * 0 d x B V z r > . .   o O O   -                 ",
"              O O   . $ . 7 M ! a.d.g.h.)./.(.^.I.c & . o X               O O   ",
"            O O O . . : Z Q.$Xf.9.8.5.q.0.m.c.j.j.A.^ b ; .   O         O O O O ",
"O O       O O O   . k _ .Xx.3.t.,.,.:.:.;.:.0.0.;.-.V.{.E u . .         O O O O ",
"4 O +     O 2   . D E.A.m.,.,.:.&.&.M.8.q.w.7.e.;.;.*.m.P.^ l .         O O O O ",
", O @     o   . D ` }.r.;.:.:.&.:.w.3.z.1.X.J u.,.:.<.*.*.L. .l &   o o O O O O ",
"O O O     o . z E.A.N.:.;.:.=.,.:.,.%.Z.G.m 6 s C.:.,.&.#.N.v.T y       O O O 2 ",
"@   O   . . w ( S.m.:.;.:.&.=.q.<.%.:.*.K.d % 6 b.:.:.,.w.=.*.OXW q   o + O O O ",
"X   O .   . S {.7.:.:.:.,.&.=.q.$.:.<.;.e.L % h 6.:.:.&.,.5.3.{.%Xn       O O O ",
"    O   . e | c.,.:.:.:.,.=.=.,.,.,.;.;.@.V.T '.r.%.:.:.+.q.L.|.&XF ;     O O O ",
"    O   . A  X4.;.:.5.8.8.=.&.,.,.=.*.w.:.;.H.6.w.#.:.>.;.q.x.' i X     . @ O O ",
"@   O   : Q K.,.:.,.8.8.8.=.&.&.=.=.,.%.;.:.;.,.*.w.*.4.C.i.Z $     o     O O O ",
"  + .   w Q.7.:.:.:.5.5.&.:.:.=.,.%.,.:.;.>.:.%.,.e.K.#XH & . .                 ",
"  . . $ g !.0.:.:.:.=.=.:.:.=.=.%.<.%.:.>.:.<.w.l.oXP : . &       O             ",
"    . . v _.e.:.:.&.&.:.:.:.:.,.:.:.<.&.%.%.O.K.} f . & o     X                 ",
"    O . N _.8.,.=.&.&.:.:.:.:.:.,.:.&.:.%.t.x.M % % . .     X X                 ",
"    O . N _.v.5.5.=.&.:.:.:.:.:.&.&.:.:.w.] 9 % $ $ .       -                   ",
"    O . x ).D.8.5.=.&.:.:.:.:.:.&.:.$.:.,.9.[ j $ $ $   O 1 O 5                 ",
"    O . f ].D.5.&.&.:.:.:.:.:.:.:.&.w.=.#.r.v.h.K 7 . . , , 1                   ",
"X X O   9 E.x.=.&.&.&.:.:.:.:.:.%.>.&.=.,.=.5.l.OXp.v & .   O O                 ",
"X   2   $ ~ G.,.:.:.&.&.:.:.%.:.:.:.:.:.:.,.8.z.C.l.k.Y r . . .                 ",
"    O o . M @X+.:.&.&.&.:.%.%.,.,.:.:.:.:.:.5.8.#.,.:.@.k.G 9 .                 ",
"      o . 7 { l.%.>.,.&.:.:.:.=.q.,.:.:.:.:.=.5.q.,.>.%.,.7.U z &               ",
"        $ . N +X7.,.,.:.:.:.&.=.,.,.:.:.:.:.&.=.,.:.$.:.:.%...s.U.p             ",
"          . > ( XX2.*.<.>.&.$.w.:.:.:.:.&.=.=.&.$.&.>.<.+.q.C.`.Y.a           O ",
"      o     o u W.A.B.:.%.:.:.=.:.:.:.:.&.=.=.&.<.&.%.%.t.C.g. .>               ",
"            . . V ^ m.;.%.>.,.$.5.=.:.:.:.:.&.=.=.$.<.;.1.oXR.t   X X           ",
"        # + , + . N o.e.w.*.&.,.5.5.:.:.:.:.:.=.*.t.+.M.+X) f .         o       ",
"      O O O , O     i I S.n.-.>.*.=.&.:.:.:.;.;.q.l.F.).R w . .                 ",
"        O O O O O     ; C y.J.2.V.z.8.8.8.e.e.V.j.|._ z &   . O O               ",
"              O O O . o . ; v / p.!._._.[.].~.T.R x : .     O 2                 ",
"O               + O O + o . . * q u z z z l t 8 * . . . .   O O                 ",
", O O             O , , , 4 <     o & . . $ . . . . =                           ",
"3 , O           # O , , , , , O             . . < O O     X                     ",
", , O O             @ O O .     O O O O             o                           ",
", , O O         @               O O O O O       X                               "
};
