/* XPM */
static char *_564241e633f4856bdf32836e8f713b6pLw45o4Hrv1breZZ[] = {
/* columns rows colors chars-per-pixel */
"40 40 16 1 ",
"  c black",
". c #0A0A03",
"X c #0B0B04",
"o c #111106",
"O c #757127",
"+ c #787328",
"@ c #797428",
"# c #837E2C",
"$ c #A7A138",
"% c #A8A238",
"& c #B6AF3D",
"* c #B6B03D",
"= c #D1CA46",
"- c #D6CF48",
"; c #D7D048",
": c #FFF656",
/* pixels */
"                                        ",
"                                        ",
"                                        ",
"                                        ",
"                                        ",
"                                        ",
"                                        ",
"                                        ",
"                                        ",
"                                        ",
"                                        ",
"                                        ",
"                                        ",
"                                        ",
"                                        ",
"                                        ",
"                 o@**+o                 ",
"                X;::::-.                ",
"                O::::::O                ",
"                %::::::$                ",
"                $::::::$                ",
"                @::::::@                ",
"                .=::::=.                ",
"                 o#*&#o                 ",
"                                        ",
"                                        ",
"                                        ",
"                                        ",
"                                        ",
"                                        ",
"                                        ",
"                                        ",
"                                        ",
"                                        ",
"                                        ",
"                                        ",
"                                        ",
"                                        ",
"                                        ",
"                                        "
};
